<?xml version="1.0" encoding="UTF-8"?>
<svg width="266px" height="69px" viewBox="0 0 266 69" version="1.1" xmlns="http://www.w3.org/2000/svg" xmlns:xlink="http://www.w3.org/1999/xlink">
    <!-- Generator: Sketch 50.2 (55047) - http://www.bohemiancoding.com/sketch -->
    <title>bitaccess</title>
    <desc>Created with Sketch.</desc>
    <defs></defs>
    <g id="Faast-Lander" stroke="none" stroke-width="1" fill="none" fill-rule="evenodd">
        <g id="Final-Design" transform="translate(-517.000000, -4402.000000)" fill-rule="nonzero">
            <g id="Group-16" transform="translate(0.000000, 4327.000000)">
                <g id="bitaccess" transform="translate(517.000000, 75.000000)">
                    <g id="Group">
                        <path d="M34.4666667,68.1333333 C16.0333333,68.1333333 0.866666667,53.2 0.866666667,34.5333333 C0.866666667,16.1 15.8,0.933333333 34.4666667,0.933333333 C53.1333333,0.933333333 68.0666667,15.8666667 68.0666667,34.5333333 C68.0666667,52.9666667 53.1333333,68.1333333 34.4666667,68.1333333 Z M34.4666667,6.76666667 C19.0666667,6.76666667 6.7,19.3666667 6.7,34.5333333 C6.7,49.9333333 19.3,62.3 34.4666667,62.3 C49.6333333,62.3 62.2333333,49.7 62.2333333,34.5333333 C62.4666667,19.1333333 49.8666667,6.76666667 34.4666667,6.76666667 Z" id="Shape" fill="#FBB512"></path>
                        <path d="M34.4666667,68.1333333 C16.0333333,68.1333333 0.866666667,53.2 0.866666667,34.5333333 C0.866666667,16.1 15.8,0.933333333 34.4666667,0.933333333 C53.1333333,0.933333333 68.0666667,15.8666667 68.0666667,34.5333333 C68.0666667,52.9666667 53.1333333,68.1333333 34.4666667,68.1333333 Z M34.4666667,6.76666667 C19.0666667,6.76666667 6.7,19.3666667 6.7,34.5333333 C6.7,49.9333333 19.3,62.3 34.4666667,62.3 C49.6333333,62.3 62.2333333,49.7 62.2333333,34.5333333 C62.4666667,19.1333333 49.8666667,6.76666667 34.4666667,6.76666667 Z" id="Shape" fill="#FFFFFF"></path>
                        <path d="M34.4666667,50.4 C25.8333333,50.4 18.6,43.4 18.6,34.5333333 C18.6,25.9 25.6,18.6666667 34.4666667,18.6666667 C43.3333333,18.6666667 50.3333333,25.6666667 50.3333333,34.5333333 C50.3333333,43.1666667 43.3333333,50.4 34.4666667,50.4 Z M34.4666667,24.5 C28.8666667,24.5 24.4333333,28.9333333 24.4333333,34.5333333 C24.4333333,40.1333333 28.8666667,44.5666667 34.4666667,44.5666667 C40.0666667,44.5666667 44.5,40.1333333 44.5,34.5333333 C44.7333333,28.9333333 40.0666667,24.5 34.4666667,24.5 Z" id="Shape" fill="#FFFFFF"></path>
                        <path d="M24.2,29.6333333 C23.5,29.6333333 22.8,29.4 22.3333333,28.9333333 C21.1666667,27.7666667 21.1666667,26.1333333 22.1,24.9666667 L41,4.43333333 C42.1666667,3.26666667 43.8,3.26666667 44.9666667,4.2 C46.1333333,5.36666667 46.1333333,7 45.2,8.16666667 L26.3,28.7 C25.6,29.4 24.9,29.6333333 24.2,29.6333333 Z" id="Shape" fill="#FFFFFF"></path>
                        <path d="M26.3,65.5666667 C25.6,65.5666667 24.9,65.3333333 24.4333333,64.8666667 C23.2666667,63.7 23.2666667,62.0666667 24.2,60.9 L42.1666667,41.3 C43.3333333,40.1333333 44.9666667,40.1333333 46.1333333,41.0666667 C47.3,42.2333333 47.3,43.8666667 46.3666667,45.0333333 L28.4,64.6333333 C27.9333333,65.3333333 27,65.5666667 26.3,65.5666667 Z" id="Shape" fill="#FFFFFF"></path>
                    </g>
                    <g id="Group" transform="translate(78.333333, 16.000000)" fill="#FFFFFF">
                        <path d="M0,0.566666667 L5.83333333,0.566666667 L5.83333333,12.2333333 C7,10.6 9.8,9.43333333 11.6666667,9.43333333 C17.9666667,9.43333333 21.4666667,15.5 21.4666667,21.3333333 C21.4666667,28.8 18.2,34.6333333 11.6666667,34.6333333 C9.1,34.6333333 7.23333333,33.4666667 5.13333333,31.6 L4.43333333,34.1666667 L0,34.1666667 L0,0.566666667 Z M5.83333333,27.8666667 C7,28.8 7.93333333,29.9666667 10.2666667,29.9666667 C13.7666667,29.9666667 15.6333333,27.1666667 15.6333333,22.0333333 C15.6333333,16.9 13.7666667,14.1 10.2666667,14.1 C8.4,14.1 7,15.0333333 5.83333333,16.2 L5.83333333,27.8666667 Z" id="Shape"></path>
                        <path d="M26.6,5.46666667 L26.6,0.1 L32.4333333,0.1 L32.4333333,5.46666667 L26.6,5.46666667 Z M32.4333333,34.1666667 L26.6,34.1666667 L26.6,9.9 L32.4333333,9.9 L32.4333333,34.1666667 Z" id="Shape"></path>
                        <path d="M39.9,9.9 L39.9,1.96666667 L45.7333333,1.96666667 L45.7333333,9.9 L50.4,9.9 L50.4,14.5666667 L45.7333333,14.5666667 L45.7333333,28.3333333 C45.7333333,29.7333333 46.4333333,29.9666667 47.8333333,29.9666667 C48.7666667,29.9666667 49.7,29.7333333 50.4,29.5 L50.4,34.1666667 C48.7666667,34.4 47.3666667,34.6333333 45.7333333,34.6333333 C41.5333333,34.6333333 39.6666667,32.5333333 39.6666667,29.0333333 L39.6666667,14.5666667 L36.4,14.5666667 L36.4,9.9 L39.9,9.9 Z" id="Shape"></path>
                        <path d="M69.3,34.1666667 L68.8333333,32.0666667 C66.5,33.7 64.4,34.6333333 61.3666667,34.6333333 C56.9333333,34.6333333 54.8333333,31.6 54.8333333,28.1 C54.8333333,22.5 59.2666667,19.7 68.8333333,18.5333333 L68.8333333,16.4333333 C68.8333333,14.5666667 67.4333333,13.6333333 65.3333333,13.6333333 C62.5333333,13.6333333 61.1333333,15.0333333 59.9666667,16.6666667 L56.2333333,13.8666667 C57.6333333,11.3 61.8333333,9.43333333 65.3333333,9.43333333 C71.8666667,9.66666667 74.6666667,12 74.6666667,19.2333333 L74.6666667,30.6666667 C74.6666667,31.8333333 74.6666667,33 75.1333333,34.1666667 L69.3,34.1666667 Z M68.8333333,22.7333333 C64.8666667,23.4333333 60.6666667,24.3666667 60.6666667,27.6333333 C60.6666667,29.5 61.8333333,30.4333333 63.4666667,30.4333333 C65.3333333,30.4333333 67.6666667,28.8 68.8333333,27.8666667 L68.8333333,22.7333333 Z" id="Shape"></path>
                        <path d="M93.8,17.8333333 C92.8666667,15.7333333 91.9333333,14.1 89.1333333,14.1 C85.8666667,14.1 84.4666667,16.6666667 84.4666667,22.0333333 C84.4666667,27.4 86.1,29.9666667 89.3666667,29.9666667 C91.9333333,29.9666667 93.3333333,28.3333333 94.5,26 L98.9333333,28.5666667 C96.6,33 93.5666667,34.6333333 89.1333333,34.6333333 C82.6,34.6333333 78.6333333,29.7333333 78.6333333,22.0333333 C78.6333333,14.3333333 82.6,9.43333333 89.1333333,9.43333333 C93.8,9.43333333 97.3,11.7666667 98.7,15.9666667 L93.8,17.8333333 Z" id="Shape"></path>
                        <path d="M117.133333,17.8333333 C116.2,15.7333333 115.266667,14.1 112.466667,14.1 C109.2,14.1 107.8,16.6666667 107.8,22.0333333 C107.8,27.4 109.433333,29.9666667 112.7,29.9666667 C115.266667,29.9666667 116.666667,28.3333333 117.833333,26 L122.266667,28.5666667 C119.933333,33 116.9,34.6333333 112.466667,34.6333333 C105.933333,34.6333333 101.966667,29.7333333 101.966667,22.0333333 C101.966667,14.3333333 105.933333,9.43333333 112.466667,9.43333333 C117.133333,9.43333333 120.633333,11.7666667 122.033333,15.9666667 L117.133333,17.8333333 Z" id="Shape"></path>
                        <path d="M131.133333,22.9666667 C131.133333,28.1 133.466667,29.9666667 136.266667,29.9666667 C139.066667,29.9666667 140.233333,28.8 141.633333,27.1666667 L145.833333,29.7333333 C143.5,33.2333333 140.233333,34.6333333 135.566667,34.6333333 C129.266667,34.6333333 125.3,29.7333333 125.3,22.0333333 C125.3,14.3333333 129.266667,9.43333333 135.8,9.43333333 C142.1,9.43333333 145.6,14.8 145.6,20.6333333 L145.6,22.9666667 L131.133333,22.9666667 Z M140.466667,19.2333333 C140.466667,15.9666667 138.6,13.8666667 135.8,13.8666667 C133,13.8666667 131.133333,15.7333333 131.133333,19.2333333 L140.466667,19.2333333 Z" id="Shape"></path>
                        <path d="M162.4,16.4333333 C161.233333,15.2666667 159.6,13.8666667 157.966667,13.8666667 C155.633333,13.8666667 154.7,14.8 154.7,16.2 C154.7,20.4 166.833333,18.5333333 166.833333,27.4 C166.833333,32.5333333 163.1,34.6333333 157.966667,34.6333333 C154,34.6333333 150.966667,33 148.866667,29.7333333 L152.833333,26.9333333 C154.233333,28.8 156.1,30.4333333 158.433333,30.4333333 C160.533333,30.4333333 161.933333,29.2666667 161.933333,27.6333333 C161.933333,23.4333333 149.8,25.0666667 149.8,16.4333333 C149.8,12 153.533333,9.43333333 157.733333,9.43333333 C161,9.43333333 164.266667,10.6 166.366667,13.1666667 L162.4,16.4333333 Z" id="Shape"></path>
                        <path d="M183.166667,16.4333333 C182,15.2666667 180.366667,13.8666667 178.733333,13.8666667 C176.4,13.8666667 175.466667,14.8 175.466667,16.2 C175.466667,20.4 187.6,18.5333333 187.6,27.4 C187.6,32.5333333 183.866667,34.6333333 178.733333,34.6333333 C174.766667,34.6333333 171.733333,33 169.633333,29.7333333 L173.6,26.9333333 C175,28.8 176.866667,30.4333333 179.2,30.4333333 C181.3,30.4333333 182.7,29.2666667 182.7,27.6333333 C182.7,23.4333333 170.566667,25.0666667 170.566667,16.4333333 C170.566667,12 174.3,9.43333333 178.5,9.43333333 C181.766667,9.43333333 185.033333,10.6 187.133333,13.1666667 L183.166667,16.4333333 Z" id="Shape"></path>
                    </g>
                </g>
            </g>
        </g>
    </g>
</svg>