<?xml version="1.0" encoding="UTF-8"?>
<svg width="66px" height="90px" viewBox="0 0 66 90" version="1.1" xmlns="http://www.w3.org/2000/svg" xmlns:xlink="http://www.w3.org/1999/xlink">
    <!-- Generator: Sketch 50.2 (55047) - http://www.bohemiancoding.com/sketch -->
    <title>Group 13</title>
    <desc>Created with Sketch.</desc>
    <defs></defs>
    <g id="Faast-Lander" stroke="none" stroke-width="1" fill="none" fill-rule="evenodd">
        <g id="Final-Design" transform="translate(-285.000000, -3110.000000)" fill="#212121" fill-rule="nonzero">
            <g id="Group-13" transform="translate(285.000000, 3110.000000)">
                <path d="M53.3131579,89.0301316 L13.0026316,89.0301316 C6.18868421,89.0301316 0.644210526,83.4856579 0.644210526,76.6717105 L0.644210526,48.2530263 C0.644210526,41.4390789 6.18868421,35.8946053 13.0026316,35.8946053 L53.3131579,35.8946053 C60.1271053,35.8946053 65.6715789,41.4390789 65.6715789,48.2530263 L65.6715789,76.6728947 C65.6715789,83.4868421 60.1271053,89.0301316 53.3131579,89.0301316 Z M13.0026316,39.4472368 C8.14736842,39.4472368 4.19684211,43.3977632 4.19684211,48.2530263 L4.19684211,76.6728947 C4.19684211,81.5281579 8.14736842,85.4786842 13.0026316,85.4786842 L53.3131579,85.4786842 C58.1684211,85.4786842 62.1189474,81.5281579 62.1189474,76.6728947 L62.1189474,48.2530263 C62.1189474,43.3977632 58.1684211,39.4472368 53.3131579,39.4472368 L13.0026316,39.4472368 Z" id="Shape"></path>
                <polygon id="Shape" points="29.0688158 70.7471053 19.1688158 60.8459211 21.6805263 58.3342105 29.0688158 65.7236842 44.6352632 50.1572368 47.1469737 52.6689474"></polygon>
                <path d="M22.0784211,38.5851316 L18.5257895,38.5851316 L18.5257895,26.9064474 C18.5257895,18.8384211 25.0898684,12.2743421 33.1567105,12.2743421 C41.2247368,12.2743421 47.7888158,18.8384211 47.7888158,26.9064474 L47.7888158,38.52 L44.2361842,38.52 L44.2361842,26.9064474 C44.2361842,20.7971053 39.2660526,15.8269737 33.1567105,15.8269737 C27.0485526,15.8269737 22.0784211,20.7971053 22.0784211,26.9064474 L22.0784211,38.5851316 Z" id="Shape"></path>
                <path d="M59.0944737,38.5851316 L55.5418421,38.5851316 L55.5418421,26.9064474 C55.5418421,14.5634211 45.5009211,4.5225 33.1578947,4.5225 C20.8148684,4.5225 10.7739474,14.5634211 10.7739474,26.9064474 L10.7739474,38.5851316 L7.22131579,38.5851316 L7.22131579,26.9064474 C7.22131579,12.6047368 18.8561842,0.969868421 33.1578947,0.969868421 C47.4596053,0.969868421 59.0944737,12.6047368 59.0944737,26.9064474 L59.0944737,38.5851316 Z" id="Shape"></path>
            </g>
        </g>
    </g>
</svg>