<?xml version="1.0" encoding="UTF-8"?>
<svg width="76px" height="72px" viewBox="0 0 76 72" version="1.1" xmlns="http://www.w3.org/2000/svg" xmlns:xlink="http://www.w3.org/1999/xlink">
    <!-- Generator: Sketch 50.2 (55047) - http://www.bohemiancoding.com/sketch -->
    <title>simple</title>
    <desc>Created with Sketch.</desc>
    <defs></defs>
    <g id="Faast-Lander" stroke="none" stroke-width="1" fill="none" fill-rule="evenodd">
        <g id="Final-Design" transform="translate(-945.000000, -3119.000000)" fill="#000000" fill-rule="nonzero">
            <path d="M959,3131.203 L959,3117 L955,3117 L955,3131.203 C950.441,3132.131 947,3136.172 947,3141 C947,3145.828 950.441,3149.869 955,3150.797 L955,3193 L959,3193 L959,3150.797 C963.559,3149.869 967,3145.828 967,3141 C967,3136.172 963.559,3132.131 959,3131.203 Z M957,3147 C953.691,3147 951,3144.309 951,3141 C951,3137.691 953.691,3135 957,3135 C960.309,3135 963,3137.691 963,3141 C963,3144.309 960.309,3147 957,3147 Z M985,3159.203 L985,3117 L981,3117 L981,3159.203 C976.441,3160.131 973,3164.172 973,3169 C973,3173.828 976.441,3177.869 981,3178.797 L981,3193 L985,3193 L985,3178.797 C989.559,3177.869 993,3173.828 993,3169 C993,3164.172 989.559,3160.131 985,3159.203 Z M983,3175 C979.691,3175 977,3172.309 977,3169 C977,3165.691 979.691,3163 983,3163 C986.309,3163 989,3165.691 989,3169 C989,3172.309 986.309,3175 983,3175 Z M1011,3131.203 L1011,3117 L1007,3117 L1007,3131.203 C1002.441,3132.131 999,3136.172 999,3141 C999,3145.828 1002.441,3149.869 1007,3150.797 L1007,3193 L1011,3193 L1011,3150.797 C1015.559,3149.869 1019,3145.828 1019,3141 C1019,3136.172 1015.559,3132.131 1011,3131.203 Z M1009,3147 C1005.691,3147 1003,3144.309 1003,3141 C1003,3137.691 1005.691,3135 1009,3135 C1012.309,3135 1015,3137.691 1015,3141 C1015,3144.309 1012.309,3147 1009,3147 Z" id="simple" transform="translate(983.000000, 3155.000000) rotate(-270.000000) translate(-983.000000, -3155.000000) "></path>
        </g>
    </g>
</svg>