<?xml version="1.0" encoding="UTF-8"?>
<svg width="60px" height="55px" viewBox="0 0 60 55" version="1.1" xmlns="http://www.w3.org/2000/svg" xmlns:xlink="http://www.w3.org/1999/xlink">
    <!-- Generator: Sketch 50.2 (55047) - http://www.bohemiancoding.com/sketch -->
    <title>wallet</title>
    <desc>Created with Sketch.</desc>
    <defs></defs>
    <g id="Faast-Lander" stroke="none" stroke-width="1" fill="none" fill-rule="evenodd">
        <g id="Final-Design" transform="translate(-332.000000, -3655.000000)" fill="#212121" fill-rule="nonzero">
            <g id="Group-12" transform="translate(301.000000, 3652.000000)">
                <g id="wallet" transform="translate(30.000000, 0.000000)">
                    <path d="M58.4998747,37.3859657 L58.4998747,16.1360155 C58.4998747,14.0649525 56.8209464,12.3860243 54.7498835,12.3860243 L45.999904,12.3860243 L45.999904,6.38603834 C45.9956169,5.34371075 45.5134552,4.36094315 44.6917362,3.7196609 C43.8700171,3.07837865 42.7995483,2.84944948 41.7874139,3.09854604 L4.50000125,12.3860243 C2.52716022,12.5178353 0.995611018,14.1587809 1.00000945,16.1360155 L1.00000945,51.1359335 C1.00000945,53.2069964 2.6789377,54.8859247 4.75000066,54.8859247 L40.9999157,54.8859247 C45.9764078,58.6182938 52.940073,58.1234013 57.3387122,53.7247622 C61.7373513,49.326123 62.2322438,42.3624578 58.4998747,37.3859657 Z M42.3874125,5.51104039 C42.6568144,5.43641247 42.9456771,5.49698046 43.1624106,5.67354001 C43.3815944,5.84403124 43.5068407,6.10844015 43.4999099,6.38603834 L43.5001831,12.3860243 L14.8999769,12.3860243 L42.3874125,5.51104039 Z M4.75000066,52.3859305 C4.05964634,52.3859305 3.50000359,51.8262878 3.50000359,51.1359335 L3.50000359,16.1360155 C3.50000359,15.4456612 4.05964634,14.8860184 4.75000066,14.8860184 L54.7498835,14.8860184 C55.4402378,14.8860184 55.9998806,15.4456612 55.9998806,16.1360155 L55.9998806,34.8859715 C51.0233885,31.1536025 44.0597232,31.6484949 39.6610841,36.0471341 C35.2624449,40.4457732 34.7675525,47.4094384 38.4999216,52.3859305 L4.75000066,52.3859305 Z M48.4998981,54.8859247 C42.9770636,54.8859247 38.4999216,50.4087827 38.4999216,44.8859481 C38.4999216,39.3631136 42.9770636,34.8859715 48.4998981,34.8859715 C54.0227327,34.8859715 58.4998747,39.3631136 58.4998747,44.8859481 C58.4998747,50.4087827 54.0227327,54.8859247 48.4998981,54.8859247 Z M54.7498835,44.8859481 C54.7498835,45.5763024 54.1902407,46.1359452 53.4998864,46.1359452 L49.7498952,46.1359452 L49.7498952,49.8859364 C49.7498952,50.5762907 49.1902525,51.1359335 48.4998981,51.1359335 C47.8095438,51.1359335 47.2499011,50.5762907 47.2499011,49.8859364 L47.2499011,46.1359452 L43.4999099,46.1359452 C42.8095555,46.1359452 42.2499128,45.5763024 42.2499128,44.8859481 C42.2499128,44.1955938 42.8095555,43.635951 43.4999099,43.635951 L47.2499011,43.635951 L47.2499011,39.8859598 C47.2499011,39.1956055 47.8095438,38.6359628 48.4998981,38.6359628 C49.1902525,38.6359628 49.7498952,39.1956055 49.7498952,39.8859598 L49.7498952,43.635951 L53.4998864,43.635951 C54.1902407,43.635951 54.7498835,44.1955938 54.7498835,44.8859481 Z" id="Shape"></path>
                </g>
            </g>
        </g>
    </g>
</svg>