<svg version="1.1" xmlns="http://www.w3.org/2000/svg" xmlns:xlink="http://www.w3.org/1999/xlink" viewBox="0 0 172 172"><g fill="none" fill-rule="nonzero" stroke="none" stroke-width="1" stroke-linecap="butt" stroke-linejoin="miter" stroke-miterlimit="10" stroke-dasharray="" stroke-dashoffset="0" font-family="none" font-weight="none" font-size="none" text-anchor="none" style="mix-blend-mode: normal"><path d="M0,172v-172h172v172z" fill="none"></path><g fill="#00d7b8"><path d="M27.1975,6.7725c-0.14781,0.02688 -0.29562,0.06719 -0.43,0.1075c-1.59906,0.36281 -2.72781,1.80063 -2.6875,3.44v24.08h-6.88c-5.84531,0 -10.32,4.47469 -10.32,10.32v6.88c0,5.84531 4.47469,10.32 10.32,10.32h20.64c5.84531,0 10.32,-4.47469 10.32,-10.32v-6.88c0,-5.84531 -4.47469,-10.32 -10.32,-10.32h-6.88v-24.08c0.04031,-0.99437 -0.36281,-1.94844 -1.075,-2.62031c-0.72562,-0.68531 -1.70656,-1.02125 -2.6875,-0.92719zM85.6775,6.7725c-0.14781,0.02688 -0.29562,0.06719 -0.43,0.1075c-1.59906,0.36281 -2.72781,1.80063 -2.6875,3.44v96.32h-6.88c-5.84531,0 -10.32,4.47469 -10.32,10.32v6.88c0,5.84531 4.47469,10.32 10.32,10.32h20.64c5.84531,0 10.32,-4.47469 10.32,-10.32v-6.88c0,-5.84531 -4.47469,-10.32 -10.32,-10.32h-6.88v-96.32c0.04031,-0.99437 -0.36281,-1.94844 -1.075,-2.62031c-0.72562,-0.68531 -1.70656,-1.02125 -2.6875,-0.92719zM144.1575,6.7725c-0.14781,0.02688 -0.29562,0.06719 -0.43,0.1075c-1.59906,0.36281 -2.72781,1.80063 -2.6875,3.44v34.4h-6.88c-5.84531,0 -10.32,4.47469 -10.32,10.32v6.88c0,5.84531 4.47469,10.32 10.32,10.32h20.64c5.84531,0 10.32,-4.47469 10.32,-10.32v-6.88c0,-5.84531 -4.47469,-10.32 -10.32,-10.32h-6.88v-34.4c0.04031,-0.99437 -0.36281,-1.94844 -1.075,-2.62031c-0.72562,-0.68531 -1.70656,-1.02125 -2.6875,-0.92719zM24.08,65.36v23.435c-0.02687,0.215 -0.02687,0.43 0,0.645v72.24c-0.01344,1.23625 0.63156,2.39188 1.70656,3.02344c1.075,0.61813 2.39187,0.61813 3.46687,0c1.075,-0.63156 1.72,-1.78719 1.70656,-3.02344v-72.24c0.02688,-0.215 0.02688,-0.43 0,-0.645v-23.435zM141.04,75.68v23.435c-0.02687,0.215 -0.02687,0.43 0,0.645v61.92c-0.01344,1.23625 0.63156,2.39188 1.70656,3.02344c1.075,0.61813 2.39187,0.61813 3.46687,0c1.075,-0.63156 1.72,-1.78719 1.70656,-3.02344v-61.92c0.02688,-0.215 0.02688,-0.43 0,-0.645v-23.435zM82.56,137.6v6.235c-0.02687,0.215 -0.02687,0.43 0,0.645v17.2c-0.01344,1.23625 0.63156,2.39188 1.70656,3.02344c1.075,0.61813 2.39187,0.61813 3.46687,0c1.075,-0.63156 1.72,-1.78719 1.70656,-3.02344v-17.2c0.02688,-0.215 0.02688,-0.43 0,-0.645v-6.235z"></path></g></g></svg>