
<svg width="178px" height="228px" viewBox="0 0 178 228" version="1.1" xmlns="http://www.w3.org/2000/svg" xmlns:xlink="http://www.w3.org/1999/xlink">
    <defs>
        <linearGradient x1="0%" y1="50%" x2="100.071531%" y2="50%" id="linearGradient-1">
            <stop stop-color="#23A1CC" offset="0%"></stop>
            <stop stop-color="#1563A4" offset="100%"></stop>
        </linearGradient>
        <linearGradient x1="0%" y1="50.0952381%" x2="99.9687207%" y2="50.0952381%" id="linearGradient-2">
            <stop stop-color="#23CCA1" offset="0%"></stop>
            <stop stop-color="#159F6F" offset="100%"></stop>
        </linearGradient>
        <linearGradient x1="8.61878514%" y1="74.9092783%" x2="90.3588984%" y2="26.6224861%" id="linearGradient-3">
            <stop stop-color="#23CC94" offset="0%"></stop>
            <stop stop-color="#11774C" offset="100%"></stop>
        </linearGradient>
    </defs>
    <g id="Page-1" stroke="none" stroke-width="1" fill="none" fill-rule="evenodd">
        <g id="404---2" transform="translate(-977.000000, -244.000000)" fill-rule="nonzero">
            <g id="astronaut" transform="translate(967.000000, 230.000000)">
                <rect id="Rectangle" fill="#B5B5B5" transform="translate(39.025479, 95.363978) rotate(149.950000) translate(-39.025479, -95.363978) " x="35.865479" y="92.203978" width="6.32" height="6.32" rx="3.16"></rect>
                <path d="M101.91,137.18 L71.16,155 C66.441356,157.723266 60.4267293,156.426079 57.25,152 L32.87,118.1 C30.3162817,114.546847 29.3833457,110.079838 30.3014738,105.80159 C31.219602,101.523341 33.9032507,97.8324646 37.69,95.64 L67.8,78.2 L101.91,137.18 Z" id="Path" fill="#969696"></path>
                <path d="M101.69,136.79 L72.09,153.91 C67.5403394,156.534913 61.7411309,155.275533 58.69,151 L35.41,118.66 C32.9178689,115.17581 32.0105133,110.802249 32.9109381,106.614227 C33.811363,102.426204 36.4360797,98.8120389 40.14,96.66 L68.84,80 L101.69,136.79 Z" id="Path" fill="#B5B5B5"></path>
                <rect id="Rectangle" fill="#B5B5B5" transform="translate(97.324211, 61.649328) rotate(-30.050000) translate(-97.324211, -61.649328) " x="94.1642113" y="58.4893281" width="6.32" height="6.32" rx="3.16"></rect>
                <path d="M101.82,137.23 L132.57,119.44 C137.287071,116.712673 139.1681,110.853379 136.92,105.89 L119.69,67.89 C117.879337,63.9089507 114.471097,60.8781065 110.305786,59.544902 C106.140474,58.2116976 101.605779,58.7002218 97.82,60.89 L67.71,78.26 L101.82,137.23 Z" id="Path" fill="#969696"></path>
                <path d="M101.21,137.07 L130.81,119.95 C135.33007,117.329371 137.139012,111.716902 135,106.95 L118.54,70.58 C116.767466,66.6671924 113.423065,63.6863305 109.332944,62.3737578 C105.242823,61.0611851 100.788391,61.5393011 97.07,63.69 L68.37,80.29 L101.21,137.07 Z" id="Path" fill="#B5B5B5"></path>
                <path d="M112.52,155 L111.78,155.43 C111.526301,155.570928 111.346339,155.81512 111.286842,156.09917 C111.227345,156.383219 111.294183,156.679105 111.47,156.91 C115.22,161.91 126.99,185.84 130.47,192.98 C131.021463,194.126285 130.582786,195.503731 129.47,196.12 L111.87,206.3 C110.957516,206.829378 109.806788,206.703771 109.03,205.99 C106.54,203.69 100.73,198.19 93.66,190.49 C84.17,180.17 72.75,160.42 68.74,150.49 C64.73,140.56 64.74,140.49 62.79,131.09 C58.31,136.8 59.64,150.18 60,153.15 C60.0447359,153.53097 60.1896574,153.893273 60.42,154.2 C61.9,156.2 67.68,163.85 69,166.14 C70.52,168.77 69,170.84 67.89,170.3 C65.1646568,168.679581 62.5306648,166.910233 60,165 C59.5910376,164.689963 59.0532412,164.607225 58.57,164.78 C56.79,165.48 59.65,168.01 59.65,168.01 C61.450881,169.391706 63.3491467,170.641621 65.33,171.75 C66.3850615,172.25008 67.1441252,173.216498 67.38,174.36 C67.6084075,175.199684 67.3455542,176.096478 66.7,176.68 C63.01,180 57.35,178.37 54.22,177.06 C52.5825496,176.391622 51.1873694,175.240598 50.22,173.76 C48.4304334,171.047394 47.366535,167.921116 47.13,164.68 C47.3331106,160.909689 46.3919642,157.166018 44.43,153.94 C30.3,126.86 47.74,102.82 49.29,98.28 C58.29,95.1 64.42,87.66 71.36,83.72 L71.15,83.84 C78.07,79.77 86.72,77.65 94,71.4 C98.71,72.33 129.09,69.74 145.52,95.5 C147.348689,98.8125617 150.13779,101.493585 153.52,103.19 C156.212053,105.012244 158.391541,107.494725 159.85,110.4 C160.650683,111.961739 160.9609,113.72893 160.74,115.47 C160.31,118.83 158.9,124.55 154.19,126.09 C153.361838,126.357921 152.453383,126.137573 151.84,125.52 C150.96601,124.744967 150.506826,123.604411 150.6,122.44 C150.626921,120.169749 150.489898,117.900517 150.19,115.65 C150.19,115.65 149.43,111.93 147.94,113.1 C147.546198,113.431269 147.346751,113.939296 147.41,114.45 C147.77,117.91 149.21,123.25 147.97,123.96 C146.73,124.67 145.34,125.48 143.81,122.85 C142.49,120.56 138.7,111.72 137.74,109.46 C137.589542,109.106612 137.347985,108.79949 137.04,108.57 C134.65,106.78 123.71,98.95 116.53,99.99 C123.73,106.36 123.73,106.37 130.38,114.82 C137.03,123.27 148.45,143.02 152.67,156.39 C155.82,166.39 157.67,174.14 158.45,177.44 C158.684495,178.468723 158.222555,179.530375 157.31,180.06 L139.71,190.24 C138.617644,190.878068 137.217567,190.558676 136.51,189.51 C132.06,182.93 117.19,160.8 114.72,155.05 C114.607376,154.78451 114.385618,154.580568 114.111647,154.490522 C113.837675,154.400475 113.538167,154.433092 113.29,154.58 L112.55,155.01" id="Path" fill="#F2F2F2"></path>
                <g id="Group" transform="translate(26.000000, 66.000000)">
                    <rect id="Rectangle" fill="#FFCB39" transform="translate(96.112728, 12.019755) rotate(-66.700000) translate(-96.112728, -12.019755) " x="86.9227281" y="8.29975472" width="18.38" height="7.44"></rect>
                    <path d="M68,5.4 C68,5.4 101.5,11.04 115.74,25.74 C127.24,42.02 125.64,35.65 127.39,37.74 C129.14,39.83 136.39,42.45 131.69,56.89 C126.99,71.33 144.4,48.23 144.4,48.23 L120.73,11.89 L70.92,0.57 L68.53,4.57 L68,5.4 Z" id="Path" fill="#FFFFFF" style="mix-blend-mode: soft-light;"></path>
                    <rect id="Rectangle" fill="#FFCB39" transform="translate(12.691965, 60.313525) rotate(4.170000) translate(-12.691965, -60.313525) " x="3.21696493" y="56.4785254" width="18.95" height="7.67"></rect>
                    <rect id="Rectangle" fill="#FFCB39" transform="translate(110.099420, 91.669922) rotate(-37.600000) translate(-110.099420, -91.669922) " x="90.0944197" y="90.0399215" width="40.01" height="3.26"></rect>
                    <rect id="Rectangle" fill="#FFCB39" transform="translate(75.285448, 111.715061) rotate(-22.500000) translate(-75.285448, -111.715061) " x="55.2804478" y="110.085061" width="40.01" height="3.26"></rect>
                    <path d="M114.51,42.6 C114.51,42.6 100,30.14 83.61,29.72 C83.61,29.72 106.05,49.58 112.17,63.72 C115.39,70.2 134.78,106.42 132.44,117.72 C143.9,106.92 114.51,42.6 114.51,42.6 Z" id="Path" fill="#DEDFE0" style="mix-blend-mode: multiply;"></path>
                    <path d="M50.44,100.34 C50.44,100.34 36.9,66.12 37.44,55.34 C31.44,70.26 28.88,77.49 32.64,89.39 C41.82,100.76 48.4,105.82 48.4,105.82 L50.44,100.34 Z" id="Path" fill="#DEDFE0"></path>
                    <path d="M85.66,89.53 L81.8,91.76 C81.5311572,91.9142902 81.3398895,92.174848 81.2732523,92.4775713 C81.2066151,92.7802945 81.2707941,93.0970828 81.45,93.35 C84.5,97.67 96.87,115.49 105.02,132.27 C105.18272,132.614909 105.512478,132.850927 105.891436,132.893712 C106.270394,132.936498 106.644474,132.779946 106.88,132.48 C108.073034,130.964733 108.670579,129.065392 108.56,127.14 C108.546578,126.973928 108.495264,126.813143 108.41,126.67 L87.16,89.94 C86.8588467,89.412772 86.1874643,89.2292608 85.66,89.53 L85.66,89.53 Z" id="Path" fill="#DEDFE0" style="mix-blend-mode: multiply;"></path>
                    <path d="M22.6,40.51 C15.16,51.07 15.5,63.38 15.46,66.01 C15.4105535,71.7115879 16.2333997,77.3872032 17.9,82.84 C21.29,88.7 22.36,93.25 21.9,94.31 C21.44,95.37 15.9,100.15 15.9,100.15 L0.31,73.15 L1.96,47.15 L22.67,31.61 L22.6,40.51 Z" id="Path" fill="#FFFFFF" style="mix-blend-mode: soft-light;"></path>
                </g>
                <circle id="Oval" fill="url(#linearGradient-1)" transform="translate(70.181639, 107.321272) rotate(-30.050000) translate(-70.181639, -107.321272) " cx="70.1816393" cy="107.321272" r="6.99"></circle>
                <path d="M113.94,127.17 L87.79,142.63 C86.4146451,143.45558 84.7659734,143.69605 83.2121026,143.297718 C81.6582317,142.899386 80.3285678,141.895425 79.52,140.51 L73.28,130 C72.4544202,128.624645 72.2139501,126.975973 72.6122821,125.422103 C73.0106142,123.868232 74.0145754,122.538568 75.4,121.73 L101.56,106.22 C102.935355,105.39442 104.584027,105.15395 106.137897,105.552282 C107.691768,105.950614 109.021432,106.954575 109.83,108.34 L116.07,118.89 C116.897956,120.267434 117.13871,121.919445 116.73832,123.47589 C116.33793,125.032336 115.329869,126.363094 113.94,127.17 L113.94,127.17 Z" id="Path" fill="#D3D3D3"></path>
                <rect id="Rectangle" fill="#B5B5B5" transform="translate(87.076540, 130.305387) rotate(-30.600000) translate(-87.076540, -130.305387) " x="80.6365403" y="129.110387" width="12.88" height="2.39" rx="1.19"></rect>
                <circle id="Oval" fill="#FFCB39" transform="translate(90.975003, 127.987508) rotate(-30.600000) translate(-90.975003, -127.987508) " cx="90.9750033" cy="127.987508" r="1"></circle>
                <rect id="Rectangle" fill="#B5B5B5" transform="translate(88.770751, 133.170346) rotate(-30.600000) translate(-88.770751, -133.170346) " x="82.3307506" y="131.975346" width="12.88" height="2.39" rx="1.19"></rect>
                <circle id="Oval" fill="#FFCB39" transform="translate(86.104310, 134.755155) rotate(-30.600000) translate(-86.104310, -134.755155) " cx="86.1043096" cy="134.755155" r="1"></circle>
                <rect id="Rectangle" fill="#B5B5B5" transform="translate(90.480051, 136.053913) rotate(-30.600000) translate(-90.480051, -136.053913) " x="84.0400513" y="134.858913" width="12.88" height="2.39" rx="1.19"></rect>
                <circle id="Oval" fill="#FFCB39" transform="translate(91.914289, 135.194959) rotate(-30.600000) translate(-91.914289, -135.194959) " cx="91.9142894" cy="135.194959" r="1"></circle>
                <rect id="Rectangle" fill="#B5B5B5" transform="translate(103.625028, 119.401815) rotate(-30.600000) translate(-103.625028, -119.401815) " x="97.9000279" y="119.161815" width="11.45" height="1"></rect>
                <rect id="Rectangle" fill="#B5B5B5" transform="translate(104.030382, 120.064895) rotate(-30.600000) translate(-104.030382, -120.064895) " x="98.3053825" y="119.824895" width="11.45" height="1"></rect>
                <rect id="Rectangle" fill="#B5B5B5" transform="translate(104.430827, 120.746583) rotate(-30.600000) translate(-104.430827, -120.746583) " x="98.7058274" y="120.506583" width="11.45" height="1"></rect>
                <rect id="Rectangle" fill="#B5B5B5" transform="translate(104.850200, 121.254150) rotate(-30.668927) translate(-104.850200, -121.254150) " x="99.1260588" y="121.014186" width="11.4482824" height="1"></rect>
                <rect id="Rectangle" fill="#B5B5B5" transform="translate(105.222929, 122.087835) rotate(-30.600000) translate(-105.222929, -122.087835) " x="99.4979291" y="121.847835" width="11.45" height="1"></rect>
                <rect id="Rectangle" fill="#B5B5B5" transform="translate(105.618284, 122.760915) rotate(-30.600000) translate(-105.618284, -122.760915) " x="99.8932837" y="122.520915" width="11.45" height="1"></rect>
                <rect id="Rectangle" fill="#B5B5B5" transform="translate(106.047300, 123.250750) rotate(-30.668927) translate(-106.047300, -123.250750) " x="100.323159" y="123.010786" width="11.4482824" height="1"></rect>
                <rect id="Rectangle" fill="#B5B5B5" transform="translate(106.449500, 123.936650) rotate(-30.668927) translate(-106.449500, -123.936650) " x="100.725359" y="123.696686" width="11.4482824" height="1"></rect>
                <rect id="Rectangle" fill="#B5B5B5" transform="translate(106.845200, 124.608850) rotate(-30.668927) translate(-106.845200, -124.608850) " x="101.121059" y="124.368886" width="11.4482824" height="1"></rect>
                <rect id="Rectangle" fill="#B5B5B5" transform="translate(107.240900, 125.271050) rotate(-30.668927) translate(-107.240900, -125.271050) " x="101.516759" y="125.031086" width="11.4482824" height="1"></rect>
                <rect id="Rectangle" fill="#B5B5B5" transform="translate(107.611539, 126.120016) rotate(-30.600000) translate(-107.611539, -126.120016) " x="101.886539" y="125.880016" width="11.45" height="1"></rect>
                <rect id="Rectangle" fill="#B5B5B5" transform="translate(107.998287, 126.788187) rotate(-30.600000) translate(-107.998287, -126.788187) " x="102.273287" y="126.548187" width="11.45" height="1"></rect>
                <rect id="Rectangle" fill="url(#linearGradient-2)" transform="translate(91.769896, 119.482209) rotate(-30.600000) translate(-91.769896, -119.482209) " x="75.784896" y="116.857209" width="31.97" height="5.25" rx="2.62"></rect>
                <rect id="Rectangle" fill="#D3D3D3" transform="translate(144.267006, 106.090839) rotate(-32.960000) translate(-144.267006, -106.090839) " x="134.792006" y="104.510839" width="18.95" height="3.16"></rect>
                <rect id="Rectangle" fill="#D3D3D3" transform="translate(53.877645, 158.008237) rotate(-25.350000) translate(-53.877645, -158.008237) " x="44.4026447" y="156.428237" width="18.95" height="3.16"></rect>
                <rect id="Rectangle" fill="#D3D3D3" transform="translate(107.902084, 147.275420) rotate(-30.120000) translate(-107.902084, -147.275420) " x="70.2270841" y="144.11542" width="75.35" height="6.32"></rect>
                <rect id="Rectangle" fill="#B5B5B5" transform="translate(107.706797, 147.395255) rotate(-30.120000) translate(-107.706797, -147.395255) " x="101.391797" y="143.110255" width="12.63" height="8.57" rx="1.32"></rect>
                <circle id="Oval" fill="#FCFCFC" transform="translate(107.708613, 147.388421) rotate(-30.120000) translate(-107.708613, -147.388421) " cx="107.708613" cy="147.388421" r="2.93"></circle>
                <path d="M139.12,192.73 L149.65,209.13 C151.586113,211.687307 154.522557,213.29562 157.72,213.55 C159.172547,213.689864 160.637681,213.619133 162.07,213.34 C164.041938,212.950949 165.934789,212.234369 167.67,211.22 C176.83,205.97 185.32,201.13 176.26,193.72 C174.602549,192.371879 172.676232,191.393378 170.61,190.85 C169.74,190.62 168.88,190.42 168.1,190.24 C165.297526,189.625872 162.893808,187.837652 161.5,185.33 L159.39,181.58 L139.12,192.73 Z" id="Path" fill="#DEDFE0"></path>
                <g id="Group" transform="translate(140.000000, 181.000000)" fill="#C4C4C4">
                    <circle id="Oval" transform="translate(28.172621, 8.293200) rotate(-30.050000) translate(-28.172621, -8.293200) " cx="28.1726208" cy="8.29319962" r="5.64"></circle>
                    <path d="M0.73,30.69 L7.23,24.84 C9.16611283,27.3973072 12.1025567,29.0056197 15.3,29.26 C16.7525465,29.3998637 18.2176809,29.3291331 19.65,29.05 C21.6219381,28.6609487 23.5147894,27.9443693 25.25,26.93 C34.41,21.68 42.9,16.84 33.84,9.43 C32.1825488,8.0818786 30.2562324,7.10337804 28.19,6.56 C27.32,6.33 26.46,6.13 25.68,5.95 C22.88,5.34 41.95,6.49 40.54,3.95 L47.65,14.43 L43.79,24 L33.79,32.9 L22.57,37.83 L15.57,38.26 L9.18,36.26 L4.74,33.09 L0.73,30.69 Z" id="Path"></path>
                </g>
                <rect id="Rectangle" fill="#D3D3D3" transform="translate(148.727356, 185.440597) rotate(149.950000) translate(-148.727356, -185.440597) " x="135.417356" y="182.960597" width="26.62" height="4.96" rx="2.48"></rect>
                <rect id="Rectangle" fill="#ADADAD" transform="translate(149.695059, 198.149447) rotate(-30.050000) translate(-149.695059, -198.149447) " x="149.140059" y="193.184447" width="1.11" height="9.93"></rect>
                <rect id="Rectangle" fill="#ADADAD" transform="translate(154.692171, 195.267781) rotate(-30.050000) translate(-154.692171, -195.267781) " x="154.137171" y="190.302781" width="1.11" height="9.93"></rect>
                <rect id="Rectangle" fill="#ADADAD" transform="translate(152.197943, 196.711110) rotate(-30.050000) translate(-152.197943, -196.711110) " x="151.642943" y="191.74611" width="1.11" height="9.93"></rect>
                <path d="M132.22,196.72 L141.22,214.03 C142.472391,216.983276 142.403254,220.330949 141.03,223.23 C140.424542,224.560801 139.629633,225.796952 138.67,226.9 C137.349727,228.416361 135.784731,229.700807 134.04,230.7 C124.92,236.03 116.49,240.97 114.59,229.43 C114.24784,227.320583 114.360351,225.162404 114.92,223.1 C115.16,222.23 115.4,221.39 115.65,220.62 C116.504864,217.879378 116.140624,214.903537 114.65,212.45 L112.45,208.76 L132.22,196.72 Z" id="Path" fill="#DEDFE0"></path>
                <g id="Group" transform="translate(104.000000, 207.000000)" fill="#C4C4C4">
                    <circle id="Oval" transform="translate(10.778521, 13.181583) rotate(-30.050000) translate(-10.778521, -13.181583) " cx="10.7785212" cy="13.1815827" r="5.64"></circle>
                    <path d="M43.86,0.56 L35.55,3.28 C36.802391,6.23327633 36.7332543,9.58094895 35.36,12.48 C34.7545419,13.810801 33.959633,15.0469518 33,16.15 C31.679727,17.6663612 30.1147309,18.9508072 28.37,19.95 C19.25,25.28 10.82,30.22 8.92,18.68 C8.57783979,16.5705826 8.69035149,14.4124037 9.25,12.35 C9.49,11.48 9.73,10.64 9.98,9.87 C10.85,7.14 2.34,24.24 0.87,21.78 L6.42,33.17 L16.61,34.57 L29.29,30.36 L39.16,23.09 L43.05,17.19 L44.47,10.63 L43.94,5.2 L43.86,0.56 Z" id="Path"></path>
                </g>
                <rect id="Rectangle" fill="#D3D3D3" transform="translate(121.098501, 201.397388) rotate(-30.050000) translate(-121.098501, -201.397388) " x="107.788501" y="198.917388" width="26.62" height="4.96" rx="2.48"></rect>
                <rect id="Rectangle" fill="#ADADAD" transform="translate(131.652274, 208.600176) rotate(149.950000) translate(-131.652274, -208.600176) " x="131.097274" y="203.635176" width="1.11" height="9.93"></rect>
                <rect id="Rectangle" fill="#ADADAD" transform="translate(126.664378, 211.479855) rotate(149.950000) translate(-126.664378, -211.479855) " x="126.109378" y="206.514855" width="1.11" height="9.93"></rect>
                <rect id="Rectangle" fill="#ADADAD" transform="translate(128.778950, 209.092050) rotate(150.113473) translate(-128.778950, -209.092050) " x="128.222039" y="204.10995" width="1.11382292" height="9.96419961"></rect>
                <rect id="Rectangle" fill="#C6C6C6" transform="translate(12.708859, 76.758865) rotate(149.950000) translate(-12.708859, -76.758865) " x="9.77385934" y="76.3988654" width="5.87" height="1"></rect>
                <path d="M21.6786709,64.7851556 L21.6786709,64.7851556 L21.6786709,83.1080444 L21.6786709,83.1080444 C17.6331068,83.1080444 14.3535291,79.8284667 14.3535291,75.7829026 L14.3535291,72.1203318 C14.3535291,68.0747677 17.6331068,64.7951901 21.6786709,64.7951901 L21.6786709,64.7851556 Z" id="ear-3" fill="#C6C6C6" transform="translate(18.016100, 73.946600) rotate(-29.886527) translate(-18.016100, -73.946600) "></path>
                <g id="Group" transform="translate(6.000000, 18.000000)" fill="#B2B2B2">
                    <ellipse id="circle" transform="translate(38.633211, 39.979889) rotate(-18.180000) translate(-38.633211, -39.979889) " cx="38.6332107" cy="39.9798891" rx="29.49" ry="31.36"></ellipse>
                    <ellipse id="Oval" transform="translate(8.894234, 57.548292) rotate(-30.050000) translate(-8.894234, -57.548292) " cx="8.89423362" cy="57.5482924" rx="1" ry="1.8"></ellipse>
                </g>
                <rect id="Rectangle" fill="#C6C6C6" transform="translate(94.424033, 29.481682) rotate(-30.050000) translate(-94.424033, -29.481682) " x="91.4890331" y="29.1216815" width="5.87" height="1"></rect>
                <path d="M92.7605956,23.4344528 L92.7605956,23.4344528 L92.7605956,41.6944528 L92.7605956,41.6944528 C88.7289169,41.6944528 85.4605956,38.4261315 85.4605956,34.3944528 L85.4605956,30.7344528 C85.4605956,26.7027741 88.7289169,23.4344528 92.7605956,23.4344528 L92.7605956,23.4344528 Z" id="ear-4" fill="#C6C6C6" transform="translate(89.110596, 32.564453) rotate(149.950000) translate(-89.110596, -32.564453) "></path>
                <g id="Group" transform="translate(22.000000, 6.000000)" fill="#B2B2B2">
                    <ellipse id="circle-2" transform="translate(40.874691, 42.427274) rotate(-30.050000) translate(-40.874691, -42.427274) " cx="40.8746907" cy="42.427274" rx="29.25" ry="31.04"></ellipse>
                    <ellipse id="Oval" transform="translate(70.252284, 24.689531) rotate(-30.050000) translate(-70.252284, -24.689531) " cx="70.2522843" cy="24.6895314" rx="1" ry="1.8"></ellipse>
                </g>
                <circle id="_Ellipse_2" fill="#E8E8E8" transform="translate(53.841600, 53.784600) rotate(-29.886527) translate(-53.841600, -53.784600) " cx="53.8416" cy="53.7846" r="38.913561"></circle>
                <g id="Group" transform="translate(4.000000, 0.000000)">
                    <ellipse id="_Ellipse_3" fill="#F2F2F2" transform="translate(51.896400, 52.598000) rotate(-29.886527) translate(-51.896400, -52.598000) " cx="51.8964" cy="52.598" rx="36.7561563" ry="38.913561"></ellipse>
                    <ellipse id="_Ellipse_4" fill="#FFFFFF" transform="translate(51.714954, 52.240577) rotate(-30.050000) translate(-51.714954, -52.240577) " cx="51.714954" cy="52.2405769" rx="36.55" ry="38.78"></ellipse>
                    <ellipse id="_Ellipse_5" fill="#F2F2F2" transform="translate(50.353350, 53.025420) rotate(-30.050000) translate(-50.353350, -53.025420) " cx="50.3533502" cy="53.0254195" rx="34.97" ry="38.78"></ellipse>
                </g>
                <path d="M78,39.49 C85.78,52.94 81.6,68.59 68.15,76.37 C54.7,84.15 37.1,81.12 29.32,67.67 C21.54,54.22 27.69,37.43 41.14,29.67 C54.59,21.91 70.25,26 78,39.49 Z" id="purple" fill="#198F6C"></path>
                <path d="M77.61,38.72 C85.14,51.72 81.87,66.42 69.91,73.34 C57.4363544,80.4748881 41.5419498,76.1893017 34.3458283,63.7508814 C27.1497069,51.3124612 31.3571057,35.3971809 43.76,28.14 C55.72,21.22 70.08,25.71 77.61,38.72 Z" id="purple-2" fill="url(#linearGradient-3)"></path>
                <g id="outline" transform="translate(20.000000, 20.000000)" fill="#D8D8D8">
                    <path d="M35.16,5.75 C44.29,5.75 52.88,10.59 58.03,19.49 C65.81,32.94 61.63,48.59 48.18,56.37 C43.4436299,59.1202193 38.0669244,60.57562 32.59,60.59 C23.25,60.59 14.28,56.25 9.32,47.67 C1.54,34.22 7.69,17.43 21.14,9.67 C25.3817391,7.16088266 30.211865,5.81879767 35.14,5.78 L35.16,5.75 Z M35.14,0.78 L35.14,0.78 L35.14,0.78 C29.3310552,0.828616971 23.6371385,2.40470414 18.63,5.35 C2.29,14.78 -3.84,34.9 5,50.17 C10.58,59.82 20.9,65.59 32.6,65.59 C38.9513522,65.5747666 45.1868462,63.8882862 50.68,60.7 C58.1306988,56.5376831 63.6100104,49.5715413 65.9,41.35 C68.0124834,33.0859266 66.7381616,24.3204642 62.36,17 C56.48,6.83 46.36,0.76 35.16,0.76 L35.14,0.78 Z" id="Shape"></path>
                </g>
                <path d="M50.075293,80.5589978 L94.275293,80.5589978 C96.3173486,80.551021 98.2785025,81.3566387 99.7252769,82.7977836 C101.172051,84.2389285 101.985309,86.1969267 101.985293,88.2389978 L101.985293,89.9889978 L42.395293,89.9889978 L42.395293,88.2389978 C42.395293,83.997451 45.8337462,80.5589978 50.075293,80.5589978 Z" id="Path" fill="#C6C6C6" transform="translate(72.190293, 85.273968) rotate(-30.050000) translate(-72.190293, -85.273968) "></path>
                <path d="M45.3728395,79.4042802 L97.6428395,79.4042802 C99.6354177,79.4095524 101.255551,81.0118819 101.28284,83.0042802 L101.28284,88.8342802 L41.7228395,88.8342802 L41.7228395,83.0042802 C41.7501885,81.007994 43.3763661,79.4040928 45.3728395,79.4042802 L45.3728395,79.4042802 Z" id="Path" fill="#D8D8D8" transform="translate(71.502840, 84.119280) rotate(-30.050000) translate(-71.502840, -84.119280) "></path>
                <circle id="Oval" fill="#B5B5B5" transform="translate(50.693094, 96.433392) rotate(-30.050000) translate(-50.693094, -96.433392) " cx="50.6930942" cy="96.4333922" r="2.26"></circle>
                <circle id="Oval" fill="#B5B5B5" transform="translate(57.658203, 92.404803) rotate(-30.050000) translate(-57.658203, -92.404803) " cx="57.6582028" cy="92.4048033" r="2.26"></circle>
                <circle id="Oval" fill="#B5B5B5" transform="translate(64.624656, 88.381222) rotate(-30.050000) translate(-64.624656, -88.381222) " cx="64.6246556" cy="88.381222" r="2.26"></circle>
                <circle id="Oval" fill="#B5B5B5" transform="translate(71.589764, 84.342633) rotate(-30.050000) translate(-71.589764, -84.342633) " cx="71.5897642" cy="84.3426331" r="2.26"></circle>
                <circle id="Oval" fill="#B5B5B5" transform="translate(78.546217, 80.319052) rotate(-30.050000) translate(-78.546217, -80.319052) " cx="78.5462169" cy="80.3190518" r="2.26"></circle>
                <circle id="Oval" fill="#B5B5B5" transform="translate(85.521326, 76.290463) rotate(-30.050000) translate(-85.521326, -76.290463) " cx="85.5213256" cy="76.2904629" r="2.26"></circle>
                <circle id="Oval" fill="#B5B5B5" transform="translate(92.477778, 72.256882) rotate(-30.050000) translate(-92.477778, -72.256882) " cx="92.4777783" cy="72.2568816" r="2.26"></circle>
            </g>
        </g>
    </g>
</svg>