<?xml version="1.0" encoding="UTF-8"?>
<svg xmlns="http://www.w3.org/2000/svg" xmlns:xlink="http://www.w3.org/1999/xlink" width="48pt" height="48pt" viewBox="0 0 48 48" version="1.1">
<g id="surface5572279">
<path style=" stroke:none;fill-rule:nonzero;fill:rgb(0%,84.313725%,72.156863%);fill-opacity:1;" d="M 24 0 C 10.769531 0 0 10.769531 0 24 C 0 37.230469 10.769531 48 24 48 C 37.230469 48 48 37.230469 48 24 C 48 10.769531 37.230469 0 24 0 Z M 24 4 C 35.070312 4 44 12.929688 44 24 C 44 35.070312 35.070312 44 24 44 C 12.929688 44 4 35.070312 4 24 C 4 12.929688 12.929688 4 24 4 Z M 20 8 L 20 12 L 16 12 L 16 36 L 20 36 L 20 40 L 22 40 L 22 36 L 24 36 L 24 40 L 26 40 L 26 35.960938 C 28.417969 35.859375 30.34375 35.296875 31.722656 34.226562 C 33.242188 33.042969 34 31.308594 34 29.011719 C 34 27.683594 33.640625 26.511719 32.917969 25.5 C 32.214844 24.511719 31.15625 23.867188 29.765625 23.550781 C 31.242188 22.453125 32 20.859375 32 18.75 L 32 18.574219 C 32 16.386719 31.207031 14.746094 29.621094 13.648438 C 28.65625 12.980469 27.429688 12.539062 26 12.277344 L 26 8 L 24 8 L 24 12.050781 C 23.667969 12.035156 23.351562 12 23 12 L 22 12 L 22 8 Z M 20.820312 16 L 24 16 C 24.75 16 25.429688 16.167969 26.128906 16.671875 C 26.828125 17.175781 27.179688 17.949219 27.179688 19 C 27.179688 19.960938 26.835938 20.851562 26.140625 21.355469 C 25.445312 21.855469 24.75 22 24 22 L 20.820312 22.003906 Z M 20.820312 26 L 25.628906 26 C 26.859375 26 27.765625 26.269531 28.335938 26.808594 C 28.90625 27.347656 29.195312 28.125 29.195312 29.144531 C 29.195312 30.085938 28.859375 30.796875 28.1875 31.277344 C 27.515625 31.757812 26.542969 32 25.265625 32 L 20.820312 32 Z M 20.820312 26 "/>
</g>
</svg>
