<?xml version="1.0" standalone="no"?>
<!DOCTYPE svg PUBLIC "-//W3C//DTD SVG 20010904//EN"
 "http://www.w3.org/TR/2001/REC-SVG-20010904/DTD/svg10.dtd">
<svg version="1.0" xmlns="http://www.w3.org/2000/svg"
 width="75.000000pt" height="75.000000pt" viewBox="0 0 75.000000 75.000000"
 preserveAspectRatio="xMidYMid meet">
<g transform="translate(0.000000,75.000000) scale(0.100000,-0.100000)"
fill="#000000" stroke="none">
<path d="M440 530 l0 -70 108 66 c59 37 109 68 111 70 2 2 -46 4 -107 4 l-112
0 0 -70z"/>
<path d="M348 498 l-3 -93 -157 -3 -158 -3 0 -24 0 -24 158 -3 157 -3 3 -93
c3 -90 3 -92 27 -92 24 0 24 2 27 92 l3 93 158 3 157 3 0 24 0 24 -157 3 -158
3 -3 93 c-3 90 -3 92 -27 92 -24 0 -24 -2 -27 -92z"/>
<path d="M440 226 l0 -76 122 0 c107 0 120 2 103 14 -15 10 -144 89 -217 133
-5 2 -8 -30 -8 -71z"/>
<path d="M195 222 l-110 -67 109 -3 c60 -1 111 -1 113 1 2 3 3 34 1 71 l-3 66
-110 -68z"/>
</g>
</svg>