<svg version="1.1" xmlns="http://www.w3.org/2000/svg" xmlns:xlink="http://www.w3.org/1999/xlink" viewBox="0 0 172 172"><g fill="none" fill-rule="nonzero" stroke="none" stroke-width="1" stroke-linecap="butt" stroke-linejoin="miter" stroke-miterlimit="10" stroke-dasharray="" stroke-dashoffset="0" font-family="none" font-weight="none" font-size="none" text-anchor="none" style="mix-blend-mode: normal"><path d="M0,172v-172h172v172z" fill="none"></path><g fill="#00d7b8"><path d="M19.84615,13.23077c-11.24099,0 -19.84615,8.60517 -19.84615,19.84615v105.84615c0,11.24099 8.60517,19.84615 19.84615,19.84615h132.30769c11.24099,0 19.84615,-8.60517 19.84615,-19.84615v-105.84615c0,-11.24099 -8.60517,-19.84615 -19.84615,-19.84615zM13.23077,46.30769h145.53846v92.61538c0,3.97957 -2.63581,6.61538 -6.61538,6.61538h-132.30769c-3.97956,0 -6.61538,-2.63581 -6.61538,-6.61538zM92.61538,59.53846l-26.46154,72.76923h13.23077l26.46154,-72.76923zM47.96154,68.42788l-23.56731,27.49519l23.56731,27.49519l9.92308,-8.68269l-16.125,-18.8125l16.125,-18.8125zM124.03846,68.42788l-9.92308,8.68269l16.125,18.8125l-16.125,18.8125l9.92308,8.68269l23.56731,-27.49519z"></path></g></g></svg>