<svg xmlns="http://www.w3.org/2000/svg" viewBox="0 0 811 438">
      <g fill="none" fillRule="evenodd" stroke="#202124" strokeWidth="2">
        <g transform="translate(-217 -3566) translate(217 3369) translate(0 197) translate(14)">
          <path fill="#1B1C20" d="M99 45H113V59H99z" />
          <path fill="#1B1C20" d="M113 45H127V59H113z" />
          <path fill="#1B1C20" d="M99 59H113V73H99z" />
          <path fill="#1B1C20" d="M113 59H127V73H113z" />
          <path fill="#1B1C20" d="M127 45H141V59H127z" />
          <path fill="#1B1C20" d="M141 45H155V59H141z" />
          <path fill="#1B1C20" d="M127 59H141V73H127z" />
          <path fill="#1B1C20" d="M141 59H155V73H141z" />
          <path fill="#1B1C20" d="M99 73H113V87H99z" />
          <path fill="#1B1C20" d="M113 73H127V87H113z" />
          <path fill="#1B1C20" d="M99 87H113V101H99z" />
          <path fill="#1B1C20" d="M113 87H127V101H113z" />
          <path fill="#1B1C20" d="M127 73H141V87H127z" />
          <path fill="#1B1C20" d="M141 73H155V87H141z" />
          <path fill="#1B1C20" d="M127 87H141V101H127z" />
          <path fill="#1B1C20" d="M141 87H155V101H141z" />
          <path fill="#1B1C20" d="M99 101H113V115H99z" />
          <path fill="#1B1C20" d="M113 101H127V115H113z" />
          <path fill="#1B1C20" d="M43 45H57V59H43z" />
          <path fill="#1B1C20" d="M57 45H71V59H57z" />
          <path fill="#1B1C20" d="M43 59H57V73H43z" />
          <path fill="#1B1C20" d="M57 59H71V73H57z" />
          <path fill="#1B1C20" d="M71 45H85V59H71z" />
          <path fill="#1B1C20" d="M85 45H99V59H85z" />
          <path fill="#1B1C20" d="M15 31H29V45H15z" />
          <path fill="#1B1C20" d="M29 31H43V45H29z" />
          <path fill="#1B1C20" d="M43 31H57V45H43z" />
          <path fill="#1B1C20" d="M57 31H71V45H57z" />
          <path fill="#1B1C20" d="M71 59H85V73H71z" />
          <path fill="#1B1C20" d="M85 59H99V73H85z" />
          <path fill="#1B1C20" d="M43 73H57V87H43z" />
          <path fill="#1B1C20" d="M57 73H71V87H57z" />
          <path fill="#1B1C20" d="M43 87H57V101H43z" />
          <path fill="#1B1C20" d="M57 87H71V101H57z" />
          <path fill="#1B1C20" d="M71 73H85V87H71z" />
          <path fill="#1B1C20" d="M85 73H99V87H85z" />
          <path fill="#1B1C20" d="M85 87H99V101H85z" />
          <path fill="#1B1C20" d="M43 101H57V115H43z" />
          <path fill="#1B1C20" d="M57 101H71V115H57z" />
          <path fill="#1B1C20" d="M71 101H85V115H71z" />
          <path fill="#1B1C20" d="M85 101H99V115H85z" />
          <path fill="#1B1C20" d="M43 185H57V199H43z" />
          <path fill="#1B1C20" d="M57 185H71V199H57z" />
          <path fill="#1B1C20" d="M43 199H57V213H43z" />
          <path fill="#1B1C20" d="M57 199H71V213H57z" />
          <path fill="#1B1C20" d="M71 185H85V199H71z" />
          <path fill="#1B1C20" d="M85 185H99V199H85z" />
          <path fill="#1B1C20" d="M71 199H85V213H71z" />
          <path fill="#1B1C20" d="M85 199H99V213H85z" />
          <path fill="#1B1C20" d="M43 213H57V227H43z" />
          <path fill="#1B1C20" d="M57 213H71V227H57z" />
          <path fill="#1B1C20" d="M43 227H57V241H43z" />
          <path fill="#1B1C20" d="M57 227H71V241H57z" />
          <path fill="#1B1C20" d="M71 213H85V227H71z" />
          <path fill="#1B1C20" d="M85 213H99V227H85z" />
          <path fill="#1B1C20" d="M71 227H85V241H71z" />
          <path fill="#1B1C20" d="M57 241H71V255H57z" />
          <path fill="#1B1C20" d="M71 241H85V255H71z" />
          <path fill="#1B1C20" d="M85 241H99V255H85z" />
          <path fill="#1B1C20" d="M43 255H57V269H43z" />
          <path fill="#1B1C20" d="M57 255H71V269H57z" />
          <path fill="#1B1C20" d="M43 269H57V283H43z" />
          <path fill="#1B1C20" d="M57 269H71V283H57z" />
          <path fill="#1B1C20" d="M71 255H85V269H71z" />
          <path fill="#1B1C20" d="M85 255H99V269H85z" />
          <path fill="#1B1C20" d="M71 269H85V283H71z" />
          <path fill="#1B1C20" d="M85 269H99V283H85z" />
          <path fill="#1B1C20" d="M43 283H57V297H43z" />
          <path fill="#1B1C20" d="M57 283H71V297H57z" />
          <path fill="#1B1C20" d="M43 297H57V311H43z" />
          <path fill="#1B1C20" d="M57 297H71V311H57z" />
          <path fill="#1B1C20" d="M71 283H85V297H71z" />
          <path fill="#1B1C20" d="M85 283H99V297H85z" />
          <path fill="#1B1C20" d="M71 297H85V311H71z" />
          <path fill="#1B1C20" d="M85 297H99V311H85z" />
          <path fill="#1B1C20" d="M43 311H57V325H43z" />
          <path fill="#1B1C20" d="M57 311H71V325H57z" />
          <path fill="#1B1C20" d="M15 185H29V199H15z" />
          <path fill="#1B1C20" d="M29 185H43V199H29z" />
          <path fill="#1B1C20" d="M15 199H29V213H15z" />
          <path fill="#1B1C20" d="M29 199H43V213H29z" />
          <path fill="#1B1C20" d="M15 213H29V227H15z" />
          <path fill="#1B1C20" d="M29 213H43V227H29z" />
          <path fill="#1B1C20" d="M15 227H29V241H15z" />
          <path fill="#1B1C20" d="M29 227H43V241H29z" />
          <path fill="#1B1C20" d="M15 241H29V255H15z" />
          <path fill="#1B1C20" d="M29 241H43V255H29z" />
          <path fill="#1B1C20" d="M15 255H29V269H15z" />
          <path fill="#1B1C20" d="M29 255H43V269H29z" />
          <path fill="#1B1C20" d="M15 269H29V283H15z" />
          <path fill="#1B1C20" d="M29 269H43V283H29z" />
          <path fill="#1B1C20" d="M15 283H29V297H15z" />
          <path fill="#1B1C20" d="M29 283H43V297H29z" />
          <path fill="#1B1C20" d="M15 297H29V311H15z" />
          <path fill="#1B1C20" d="M29 297H43V311H29z" />
          <path fill="#1B1C20" d="M15 311H29V325H15z" />
          <path fill="#1B1C20" d="M29 311H43V325H29z" />
          <path fill="#1B1C20" d="M29 325H43V339H29z" />
          <path fill="#1B1C20" d="M15 339H29V353H15z" />
          <path fill="#1B1C20" d="M29 339H43V353H29z" />
          <path fill="#1B1C20" d="M15 353H29V367H15z" />
          <path fill="#3E473C" d="M71 87H85V101H71z" />
          <path fill="#1B1C20" d="M29 353H43V367H29z" />
          <path fill="#1B1C20" d="M15 367H29V381H15z" />
          <path fill="#1B1C20" d="M1 297H15V311H1z" />
          <path fill="#1B1C20" d="M1 311H15V325H1z" />
          <path fill="#1B1C20" d="M1 325H15V339H1z" />
          <path fill="#1B1C20" d="M1 339H15V353H1z" />
          <path fill="#1B1C20" d="M1 353H15V367H1z" />
          <path fill="#1B1C20" d="M1 367H15V381H1z" />
          <path fill="#1B1C20" d="M29 367H43V381H29z" />
          <path fill="#1B1C20" d="M29 325H43V339H29z" />
          <path fill="#1B1C20" d="M43 325H57V339H43z" />
          <path fill="#1B1C20" d="M29 339H43V353H29z" />
          <path fill="#1B1C20" d="M43 339H57V353H43z" />
          <path fill="#1B1C20" d="M29 353H43V367H29z" />
          <path fill="#1B1C20" d="M43 353H57V367H43z" />
          <path fill="#1B1C20" d="M29 367H43V381H29z" />
          <path fill="#1B1C20" d="M43 367H57V381H43z" />
          <path fill="#1B1C20" d="M71 311H85V325H71z" />
          <path fill="#1B1C20" d="M85 311H99V325H85z" />
          <path fill="#1B1C20" d="M85 325H99V339H85z" />
          <path fill="#202A1D" d="M43 241H57V255H43z" />
          <path fill="#1B1C20" d="M43 115H57V129H43z" />
          <path fill="#1B1C20" d="M57 115H71V129H57z" />
          <path fill="#1B1C20" d="M43 129H57V143H43z" />
          <path fill="#1B1C20" d="M57 129H71V143H57z" />
          <path fill="#1B1C20" d="M71 115H85V129H71z" />
          <path fill="#1B1C20" d="M85 115H99V129H85z" />
          <path fill="#1B1C20" d="M71 129H85V143H71z" />
          <path fill="#1B1C20" d="M85 129H99V143H85z" />
          <path fill="#1B1C20" d="M43 143H57V157H43z" />
          <path fill="#1B1C20" d="M57 143H71V157H57z" />
          <path fill="#1B1C20" d="M43 157H57V171H43z" />
          <path fill="#1B1C20" d="M57 157H71V171H57z" />
          <path fill="#1B1C20" d="M71 143H85V157H71z" />
          <path fill="#1B1C20" d="M85 143H99V157H85z" />
          <path fill="#1B1C20" d="M71 157H85V171H71z" />
          <path fill="#1B1C20" d="M85 157H99V171H85z" />
          <path fill="#1B1C20" d="M43 171H57V185H43z" />
          <path fill="#1B1C20" d="M57 171H71V185H57z" />
          <path fill="#1B1C20" d="M85 171H99V185H85z" />
          <path fill="#1B1C20" d="M99 115H113V129H99z" />
          <path fill="#1B1C20" d="M113 115H127V129H113z" />
          <path fill="#1B1C20" d="M127 101H141V115H127z" />
          <path fill="#1B1C20" d="M141 101H155V115H141z" />
          <path fill="#1B1C20" d="M127 115H141V129H127z" />
          <path fill="#1B1C20" d="M141 115H155V129H141z" />
          <path fill="#1B1C20" d="M99 129H113V143H99z" />
          <path fill="#1B1C20" d="M113 129H127V143H113z" />
          <path fill="#1B1C20" d="M99 143H113V157H99z" />
          <path fill="#1B1C20" d="M113 143H127V157H113z" />
          <path fill="#1B1C20" d="M127 129H141V143H127z" />
          <path fill="#1B1C20" d="M141 129H155V143H141z" />
          <path fill="#1B1C20" d="M127 143H141V157H127z" />
          <path fill="#1B1C20" d="M141 143H155V157H141z" />
          <path fill="#1B1C20" d="M99 157H113V171H99z" />
          <path fill="#1B1C20" d="M113 157H127V171H113z" />
          <path fill="#1B1C20" d="M99 171H113V185H99z" />
          <path fill="#1B1C20" d="M113 171H127V185H113z" />
          <path fill="#1B1C20" d="M127 157H141V171H127z" />
          <path fill="#1B1C20" d="M141 157H155V171H141z" />
          <path fill="#1B1C20" d="M127 171H141V185H127z" />
          <path fill="#1B1C20" d="M141 171H155V185H141z" />
          <path fill="#3E473C" d="M15 325H29V339H15z" />
          <path fill="#1B1C20" d="M99 185H113V199H99z" />
          <path fill="#1B1C20" d="M113 185H127V199H113z" />
          <path fill="#1B1C20" d="M99 199H113V213H99z" />
          <path fill="#1B1C20" d="M230 29H244V43H230z" />
          <path fill="#1B1C20" d="M244 29H258V43H244z" />
          <path fill="#1B1C20" d="M258 29H272V43H258z" />
          <path fill="#1B1C20" d="M272 29H286V43H272z" />
          <path fill="#1B1C20" d="M202 29H216V43H202z" />
          <path fill="#1B1C20" d="M216 29H230V43H216z" />
          <path fill="#1B1C20" d="M286 29H300V43H286z" />
          <path fill="#1B1C20" d="M230 15H244V29H230z" />
          <path fill="#1B1C20" d="M258 15H272V29H258z" />
          <path fill="#1B1C20" d="M272 15H286V29H272z" />
          <path fill="#1B1C20" d="M202 15H216V29H202z" />
          <path fill="#1B1C20" d="M216 15H230V29H216z" />
          <path fill="#1B1C20" d="M202 1H216V15H202z" />
          <path fill="#1B1C20" d="M216 1H230V15H216z" />
          <path fill="#1B1C20" d="M286 15H300V29H286z" />
          <path fill="#1B1C20" d="M442 29H456V43H442z" />
          <path fill="#1B1C20" d="M456 29H470V43H456z" />
          <path fill="#1B1C20" d="M470 29H484V43H470z" />
          <path fill="#1B1C20" d="M484 29H498V43H484z" />
          <path fill="#1B1C20" d="M414 29H428V43H414z" />
          <path fill="#1B1C20" d="M428 29H442V43H428z" />
          <path fill="#1B1C20" d="M414 15H428V29H414z" />
          <path fill="#1B1C20" d="M428 15H442V29H428z" />
          <path fill="#1B1C20" d="M498 29H512V43H498z" />
          <path fill="#1B1C20" d="M113 199H127V213H113z" />
          <path fill="#1B1C20" d="M127 185H141V199H127z" />
          <path fill="#1B1C20" d="M141 185H155V199H141z" />
          <path fill="#1B1C20" d="M127 199H141V213H127z" />
          <path fill="#1B1C20" d="M141 199H155V213H141z" />
          <path fill="#1B1C20" d="M99 213H113V227H99z" />
          <path fill="#1B1C20" d="M113 213H127V227H113z" />
          <path fill="#1B1C20" d="M99 227H113V241H99z" />
          <path fill="#1B1C20" d="M113 227H127V241H113z" />
          <path fill="#1B1C20" d="M127 213H141V227H127z" />
          <path fill="#1B1C20" d="M141 213H155V227H141z" />
          <path fill="#1B1C20" d="M127 227H141V241H127z" />
          <path fill="#1B1C20" d="M141 227H155V241H141z" />
          <path fill="#1B1C20" d="M99 241H113V255H99z" />
          <path fill="#1B1C20" d="M113 241H127V255H113z" />
          <path fill="#202A1D" d="M71 171H85V185H71z" />
          <path fill="#1B1C20" d="M99 255H113V269H99z" />
          <path fill="#1B1C20" d="M113 255H127V269H113z" />
          <path fill="#041B06" d="M85 227H99V241H85z" />
          <path fill="#1B1C20" d="M127 241H141V255H127z" />
          <path fill="#1B1C20" d="M141 241H155V255H141z" />
          <path fill="#1B1C20" d="M127 255H141V269H127z" />
          <path fill="#1B1C20" d="M141 255H155V269H141z" />
          <path fill="#1B1C20" d="M99 269H113V283H99z" />
          <path fill="#1B1C20" d="M113 269H127V283H113z" />
          <path fill="#1B1C20" d="M99 283H113V297H99z" />
          <path fill="#1B1C20" d="M113 283H127V297H113z" />
          <path fill="#1B1C20" d="M127 269H141V283H127z" />
          <path fill="#1B1C20" d="M141 269H155V283H141z" />
          <path fill="#1B1C20" d="M127 283H141V297H127z" />
          <path fill="#1B1C20" d="M141 283H155V297H141z" />
          <path fill="#1B1C20" d="M99 297H113V311H99z" />
          <path fill="#1B1C20" d="M113 297H127V311H113z" />
          <path fill="#1B1C20" d="M99 311H113V325H99z" />
          <path fill="#1B1C20" d="M113 311H127V325H113z" />
          <path fill="#1B1C20" d="M127 297H141V311H127z" />
          <path fill="#1B1C20" d="M141 297H155V311H141z" />
          <path fill="#1B1C20" d="M127 311H141V325H127z" />
          <path fill="#1B1C20" d="M141 311H155V325H141z" />
          <path fill="#1B1C20" d="M99 325H113V339H99z" />
          <path fill="#1B1C20" d="M113 325H127V339H113z" />
          <path fill="#1B1C20" d="M99 339H113V353H99z" />
          <path fill="#1B1C20" d="M113 339H127V353H113z" />
          <path fill="#1B1C20" d="M127 325H141V339H127z" />
          <path fill="#1B1C20" d="M141 325H155V339H141z" />
          <path fill="#1B1C20" d="M127 339H141V353H127z" />
          <path fill="#1B1C20" d="M141 339H155V353H141z" />
          <path fill="#1B1C20" d="M99 353H113V367H99z" />
          <path fill="#1B1C20" d="M113 353H127V367H113z" />
          <path fill="#1B1C20" d="M99 367H113V381H99z" />
          <path fill="#1B1C20" d="M113 367H127V381H113z" />
          <path fill="#3E473C" d="M244 15H258V29H244z" />
          <path fill="#1B1C20" d="M127 353H141V367H127z" />
          <path fill="#1B1C20" d="M141 353H155V367H141z" />
          <path fill="#1B1C20" d="M127 367H141V381H127z" />
          <path fill="#1B1C20" d="M141 367H155V381H141z" />
          <path fill="#1B1C20" d="M99 381H113V395H99z" />
          <path fill="#1B1C20" d="M113 381H127V395H113z" />
          <path fill="#1B1C20" d="M99 395H113V409H99z" />
          <path fill="#1B1C20" d="M113 395H127V409H113z" />
          <path fill="#1B1C20" d="M127 381H141V395H127z" />
          <path fill="#1B1C20" d="M141 381H155V395H141z" />
          <path fill="#1B1C20" d="M127 395H141V409H127z" />
          <path fill="#1B1C20" d="M141 395H155V409H141z" />
        </g>
        <g transform="translate(-217 -3566) translate(217 3369) translate(0 197) translate(229 44)">
          <path fill="#1B1C20" d="M58 1H72V15H58z" />
          <path fill="#1B1C20" d="M72 1H86V15H72z" />
          <path fill="#1B1C20" d="M58 15H72V29H58z" />
          <path fill="#1B1C20" d="M72 15H86V29H72z" />
          <path fill="#1B1C20" d="M86 1H100V15H86z" />
          <path fill="#1B1C20" d="M100 1H114V15H100z" />
          <path fill="#1B1C20" d="M86 15H100V29H86z" />
          <path fill="#1B1C20" d="M100 15H114V29H100z" />
          <path fill="#1B1C20" d="M58 29H72V43H58z" />
          <path fill="#1B1C20" d="M72 29H86V43H72z" />
          <path fill="#1B1C20" d="M58 43H72V57H58z" />
          <path fill="#1B1C20" d="M72 43H86V57H72z" />
          <path fill="#1B1C20" d="M86 29H100V43H86z" />
          <path fill="#1B1C20" d="M100 29H114V43H100z" />
          <path fill="#1B1C20" d="M86 43H100V57H86z" />
          <path fill="#1B1C20" d="M100 43H114V57H100z" />
          <path fill="#1B1C20" d="M58 57H72V71H58z" />
          <path fill="#1B1C20" d="M72 57H86V71H72z" />
          <path fill="#1B1C20" d="M1 1H15V15H1z" />
          <path fill="#1B1C20" d="M15 1H29V15H15z" />
          <path fill="#1B1C20" d="M1 15H15V29H1z" />
          <path fill="#1B1C20" d="M15 15H29V29H15z" />
          <path fill="#1B1C20" d="M29 1H43V15H29z" />
          <path fill="#1B1C20" d="M43 1H57V15H43z" />
          <path fill="#1B1C20" d="M29 15H43V29H29z" />
          <path fill="#1B1C20" d="M43 15H57V29H43z" />
          <path fill="#1B1C20" d="M1 29H15V43H1z" />
          <path fill="#1B1C20" d="M15 29H29V43H15z" />
          <path fill="#1B1C20" d="M1 43H15V57H1z" />
          <path fill="#1B1C20" d="M15 43H29V57H15z" />
          <path fill="#1B1C20" d="M29 29H43V43H29z" />
          <path fill="#1B1C20" d="M43 29H57V43H43z" />
          <path fill="#1B1C20" d="M29 43H43V57H29z" />
          <path fill="#1B1C20" d="M43 43H57V57H43z" />
          <path fill="#1B1C20" d="M1 57H15V71H1z" />
          <path fill="#1B1C20" d="M15 57H29V71H15z" />
          <path fill="#1B1C20" d="M58 71H72V85H58z" />
          <path fill="#1B1C20" d="M72 71H86V85H72z" />
          <path fill="#1B1C20" d="M86 57H100V71H86z" />
          <path fill="#1B1C20" d="M100 57H114V71H100z" />
          <path fill="#1B1C20" d="M86 71H100V85H86z" />
          <path fill="#1B1C20" d="M100 71H114V85H100z" />
          <path fill="#1B1C20" d="M58 85H72V99H58z" />
          <path fill="#1B1C20" d="M72 85H86V99H72z" />
          <path fill="#1B1C20" d="M58 99H72V113H58z" />
          <path fill="#1B1C20" d="M72 99H86V113H72z" />
          <path fill="#1B1C20" d="M86 85H100V99H86z" />
          <path fill="#1B1C20" d="M100 85H114V99H100z" />
          <path fill="#1B1C20" d="M86 99H100V113H86z" />
          <path fill="#1B1C20" d="M100 99H114V113H100z" />
          <path fill="#1B1C20" d="M58 113H72V127H58z" />
          <path fill="#1B1C20" d="M72 113H86V127H72z" />
          <path fill="#1B1C20" d="M58 127H72V141H58z" />
          <path fill="#1B1C20" d="M72 127H86V141H72z" />
          <path fill="#1B1C20" d="M86 113H100V127H86z" />
          <path fill="#1B1C20" d="M100 113H114V127H100z" />
          <path fill="#1B1C20" d="M86 127H100V141H86z" />
          <path fill="#1B1C20" d="M100 127H114V141H100z" />
          <path fill="#1B1C20" d="M58 141H72V155H58z" />
          <path fill="#1B1C20" d="M72 141H86V155H72z" />
          <path fill="#1B1C20" d="M58 155H72V169H58z" />
          <path fill="#1B1C20" d="M72 155H86V169H72z" />
          <path fill="#1B1C20" d="M86 141H100V155H86z" />
          <path fill="#1B1C20" d="M100 141H114V155H100z" />
          <path fill="#1B1C20" d="M86 155H100V169H86z" />
          <path fill="#1B1C20" d="M100 155H114V169H100z" />
          <path fill="#1B1C20" d="M58 169H72V183H58z" />
          <path fill="#1B1C20" d="M72 169H86V183H72z" />
          <path fill="#1B1C20" d="M58 183H72V197H58z" />
          <path fill="#1B1C20" d="M72 183H86V197H72z" />
          <path fill="#1B1C20" d="M86 169H100V183H86z" />
          <path fill="#1B1C20" d="M100 169H114V183H100z" />
          <path fill="#1B1C20" d="M86 183H100V197H86z" />
          <path fill="#1B1C20" d="M100 183H114V197H100z" />
          <path fill="#1B1C20" d="M58 197H72V211H58z" />
          <path fill="#1B1C20" d="M72 197H86V211H72z" />
          <path fill="#1B1C20" d="M58 211H72V225H58z" />
          <path fill="#1B1C20" d="M72 211H86V225H72z" />
          <path fill="#1B1C20" d="M86 197H100V211H86z" />
          <path fill="#1B1C20" d="M100 197H114V211H100z" />
          <path fill="#1B1C20" d="M86 211H100V225H86z" />
          <path fill="#1B1C20" d="M100 211H114V225H100z" />
          <path fill="#1B1C20" d="M58 225H72V239H58z" />
          <path fill="#1B1C20" d="M72 225H86V239H72z" />
          <path fill="#1B1C20" d="M58 239H72V253H58z" />
          <path fill="#1B1C20" d="M72 239H86V253H72z" />
          <path fill="#1B1C20" d="M86 225H100V239H86z" />
          <path fill="#1B1C20" d="M100 225H114V239H100z" />
          <path fill="#1B1C20" d="M86 239H100V253H86z" />
          <path fill="#1B1C20" d="M100 239H114V253H100z" />
          <path fill="#1B1C20" d="M58 253H72V267H58z" />
          <path fill="#1B1C20" d="M72 253H86V267H72z" />
          <path fill="#1B1C20" d="M58 267H72V281H58z" />
          <path fill="#1B1C20" d="M72 267H86V281H72z" />
          <path fill="#1B1C20" d="M86 253H100V267H86z" />
          <path fill="#1B1C20" d="M100 253H114V267H100z" />
          <path fill="#1B1C20" d="M86 267H100V281H86z" />
          <path fill="#1B1C20" d="M100 267H114V281H100z" />
          <path fill="#1B1C20" d="M58 281H72V295H58z" />
          <path fill="#1B1C20" d="M72 281H86V295H72z" />
          <path fill="#1B1C20" d="M58 295H72V309H58z" />
          <path fill="#1B1C20" d="M72 295H86V309H72z" />
          <path fill="#1B1C20" d="M86 281H100V295H86z" />
          <path fill="#1B1C20" d="M100 281H114V295H100z" />
          <path fill="#1B1C20" d="M86 295H100V309H86z" />
          <path fill="#1B1C20" d="M100 295H114V309H100z" />
          <path fill="#1B1C20" d="M58 309H72V323H58z" />
          <path fill="#1B1C20" d="M72 309H86V323H72z" />
          <path fill="#1B1C20" d="M58 323H72V337H58z" />
          <path fill="#1B1C20" d="M72 323H86V337H72z" />
          <path fill="#1B1C20" d="M86 309H100V323H86z" />
          <path fill="#1B1C20" d="M100 309H114V323H100z" />
          <path fill="#1B1C20" d="M86 323H100V337H86z" />
          <path fill="#1B1C20" d="M100 323H114V337H100z" />
          <path fill="#1B1C20" d="M58 337H72V351H58z" />
          <path fill="#1B1C20" d="M72 337H86V351H72z" />
          <path fill="#1B1C20" d="M58 351H72V365H58z" />
          <path fill="#1B1C20" d="M72 351H86V365H72z" />
          <path fill="#1B1C20" d="M86 337H100V351H86z" />
          <path fill="#1B1C20" d="M100 337H114V351H100z" />
          <path fill="#1B1C20" d="M86 351H100V365H86z" />
          <path fill="#1B1C20" d="M100 351H114V365H100z" />
          <path fill="#1B1C20" d="M58 365H72V379H58z" />
          <path fill="#1B1C20" d="M72 365H86V379H72z" />
          <path fill="#1B1C20" d="M100 365H114V379H100z" />
          <path fill="#1B1C20" d="M58 379H72V393H58z" />
          <path fill="#1B1C20" d="M72 379H86V393H72z" />
          <path fill="#1B1C20" d="M86 379H100V393H86z" />
          <path fill="#1B1C20" d="M100 379H114V393H100z" />
          <path fill="#041B06" d="M86 365H100V379H86z" />
        </g>
        <g transform="translate(-217 -3566) translate(217 3369) translate(0 197) translate(539 41)">
          <path fill="#1B1C20" d="M58 15H72V29H58z" />
          <path fill="#1B1C20" d="M72 15H86V29H72z" />
          <path fill="#1B1C20" d="M100 1H114V15H100z" />
          <path fill="#1B1C20" d="M86 15H100V29H86z" />
          <path fill="#1B1C20" d="M100 15H114V29H100z" />
          <path fill="#1B1C20" d="M58 29H72V43H58z" />
          <path fill="#1B1C20" d="M72 29H86V43H72z" />
          <path fill="#1B1C20" d="M58 43H72V57H58z" />
          <path fill="#1B1C20" d="M72 43H86V57H72z" />
          <path fill="#1B1C20" d="M86 29H100V43H86z" />
          <path fill="#1B1C20" d="M100 29H114V43H100z" />
          <path fill="#1B1C20" d="M86 43H100V57H86z" />
          <path fill="#1B1C20" d="M100 43H114V57H100z" />
          <path fill="#1B1C20" d="M58 57H72V71H58z" />
          <path fill="#1B1C20" d="M72 57H86V71H72z" />
          <path fill="#1B1C20" d="M1 15H15V29H1z" />
          <path fill="#1B1C20" d="M15 15H29V29H15z" />
          <path fill="#1B1C20" d="M29 15H43V29H29z" />
          <path fill="#1B1C20" d="M43 15H57V29H43z" />
          <path fill="#1B1C20" d="M1 29H15V43H1z" />
          <path fill="#1B1C20" d="M15 29H29V43H15z" />
          <path fill="#1B1C20" d="M1 43H15V57H1z" />
          <path fill="#1B1C20" d="M15 43H29V57H15z" />
          <path fill="#1B1C20" d="M29 29H43V43H29z" />
          <path fill="#1B1C20" d="M43 29H57V43H43z" />
          <path fill="#1B1C20" d="M29 43H43V57H29z" />
          <path fill="#1B1C20" d="M43 43H57V57H43z" />
          <path fill="#1B1C20" d="M1 57H15V71H1z" />
          <path fill="#1B1C20" d="M15 57H29V71H15z" />
          <path fill="#1B1C20" d="M58 71H72V85H58z" />
          <path fill="#1B1C20" d="M72 71H86V85H72z" />
          <path fill="#1B1C20" d="M86 57H100V71H86z" />
          <path fill="#1B1C20" d="M100 57H114V71H100z" />
          <path fill="#1B1C20" d="M86 71H100V85H86z" />
          <path fill="#1B1C20" d="M100 71H114V85H100z" />
          <path fill="#1B1C20" d="M58 85H72V99H58z" />
          <path fill="#1B1C20" d="M72 85H86V99H72z" />
          <path fill="#1B1C20" d="M58 99H72V113H58z" />
          <path fill="#1B1C20" d="M72 99H86V113H72z" />
          <path fill="#1B1C20" d="M86 85H100V99H86z" />
          <path fill="#1B1C20" d="M100 85H114V99H100z" />
          <path fill="#1B1C20" d="M86 99H100V113H86z" />
          <path fill="#1B1C20" d="M100 99H114V113H100z" />
          <path fill="#1B1C20" d="M58 113H72V127H58z" />
          <path fill="#1B1C20" d="M72 113H86V127H72z" />
          <path fill="#1B1C20" d="M58 127H72V141H58z" />
          <path fill="#1B1C20" d="M72 127H86V141H72z" />
          <path fill="#1B1C20" d="M86 113H100V127H86z" />
          <path fill="#1B1C20" d="M100 113H114V127H100z" />
          <path fill="#1B1C20" d="M86 127H100V141H86z" />
          <path fill="#1B1C20" d="M100 127H114V141H100z" />
          <path fill="#1B1C20" d="M58 141H72V155H58z" />
          <path fill="#1B1C20" d="M72 141H86V155H72z" />
          <path fill="#1B1C20" d="M58 155H72V169H58z" />
          <path fill="#1B1C20" d="M72 155H86V169H72z" />
          <path fill="#1B1C20" d="M86 141H100V155H86z" />
          <path fill="#1B1C20" d="M100 141H114V155H100z" />
          <path fill="#1B1C20" d="M86 155H100V169H86z" />
          <path fill="#1B1C20" d="M100 155H114V169H100z" />
          <path fill="#1B1C20" d="M58 169H72V183H58z" />
          <path fill="#1B1C20" d="M72 169H86V183H72z" />
          <path fill="#1B1C20" d="M58 183H72V197H58z" />
          <path fill="#1B1C20" d="M72 183H86V197H72z" />
          <path fill="#1B1C20" d="M86 169H100V183H86z" />
          <path fill="#1B1C20" d="M100 169H114V183H100z" />
          <path fill="#1B1C20" d="M86 183H100V197H86z" />
          <path fill="#1B1C20" d="M100 183H114V197H100z" />
          <path fill="#1B1C20" d="M58 197H72V211H58z" />
          <path fill="#1B1C20" d="M72 197H86V211H72z" />
          <path fill="#1B1C20" d="M58 211H72V225H58z" />
          <path fill="#1B1C20" d="M72 211H86V225H72z" />
          <path fill="#1B1C20" d="M86 197H100V211H86z" />
          <path fill="#1B1C20" d="M100 197H114V211H100z" />
          <path fill="#1B1C20" d="M86 211H100V225H86z" />
          <path fill="#1B1C20" d="M100 211H114V225H100z" />
          <path fill="#1B1C20" d="M58 225H72V239H58z" />
          <path fill="#1B1C20" d="M72 225H86V239H72z" />
          <path fill="#1B1C20" d="M58 239H72V253H58z" />
          <path fill="#1B1C20" d="M72 239H86V253H72z" />
          <path fill="#1B1C20" d="M86 225H100V239H86z" />
          <path fill="#1B1C20" d="M100 225H114V239H100z" />
          <path fill="#1B1C20" d="M86 239H100V253H86z" />
          <path fill="#1B1C20" d="M100 239H114V253H100z" />
          <path fill="#1B1C20" d="M58 253H72V267H58z" />
          <path fill="#1B1C20" d="M72 253H86V267H72z" />
          <path fill="#1B1C20" d="M58 267H72V281H58z" />
          <path fill="#1B1C20" d="M72 267H86V281H72z" />
          <path fill="#1B1C20" d="M86 253H100V267H86z" />
          <path fill="#1B1C20" d="M100 253H114V267H100z" />
          <path fill="#1B1C20" d="M86 267H100V281H86z" />
          <path fill="#1B1C20" d="M100 267H114V281H100z" />
          <path fill="#1B1C20" d="M58 281H72V295H58z" />
          <path fill="#1B1C20" d="M72 281H86V295H72z" />
          <path fill="#1B1C20" d="M58 295H72V309H58z" />
          <path fill="#1B1C20" d="M72 295H86V309H72z" />
          <path fill="#1B1C20" d="M86 281H100V295H86z" />
          <path fill="#1B1C20" d="M100 281H114V295H100z" />
          <path fill="#1B1C20" d="M86 295H100V309H86z" />
          <path fill="#1B1C20" d="M100 295H114V309H100z" />
          <path fill="#1B1C20" d="M58 309H72V323H58z" />
          <path fill="#1B1C20" d="M72 309H86V323H72z" />
          <path fill="#1B1C20" d="M58 323H72V337H58z" />
          <path fill="#1B1C20" d="M72 323H86V337H72z" />
          <path fill="#1B1C20" d="M86 309H100V323H86z" />
          <path fill="#1B1C20" d="M100 309H114V323H100z" />
          <path fill="#1B1C20" d="M86 323H100V337H86z" />
          <path fill="#1B1C20" d="M100 323H114V337H100z" />
          <path fill="#1B1C20" d="M58 337H72V351H58z" />
          <path fill="#1B1C20" d="M72 337H86V351H72z" />
          <path fill="#1B1C20" d="M58 351H72V365H58z" />
          <path fill="#1B1C20" d="M72 351H86V365H72z" />
          <path fill="#1B1C20" d="M86 337H100V351H86z" />
          <path fill="#1B1C20" d="M100 337H114V351H100z" />
          <path fill="#1B1C20" d="M86 351H100V365H86z" />
          <path fill="#1B1C20" d="M100 351H114V365H100z" />
          <path fill="#1B1C20" d="M58 365H72V379H58z" />
          <path fill="#1B1C20" d="M72 365H86V379H72z" />
          <path fill="#1B1C20" d="M100 365H114V379H100z" />
          <path fill="#3E473C" d="M86 365H100V379H86z" />
        </g>
        <g transform="translate(-217 -3566) translate(217 3369) translate(0 197) translate(0 16)">
          <path fill="#1B1C20" d="M670 29H684V43H670z" />
          <path fill="#1B1C20" d="M684 29H698V43H684z" />
          <path fill="#1B1C20" d="M670 43H684V57H670z" />
          <path fill="#1B1C20" d="M684 43H698V57H684z" />
          <path fill="#1B1C20" d="M698 29H712V43H698z" />
          <path fill="#1B1C20" d="M712 29H726V43H712z" />
          <path fill="#1B1C20" d="M698 43H712V57H698z" />
          <path fill="#1B1C20" d="M712 43H726V57H712z" />
          <path fill="#1B1C20" d="M670 57H684V71H670z" />
          <path fill="#1B1C20" d="M684 57H698V71H684z" />
          <path fill="#1B1C20" d="M670 71H684V85H670z" />
          <path fill="#1B1C20" d="M684 71H698V85H684z" />
          <path fill="#1B1C20" d="M698 57H712V71H698z" />
          <path fill="#1B1C20" d="M712 57H726V71H712z" />
          <path fill="#1B1C20" d="M698 71H712V85H698z" />
          <path fill="#1B1C20" d="M712 71H726V85H712z" />
          <path fill="#1B1C20" d="M670 85H684V99H670z" />
          <path fill="#1B1C20" d="M684 85H698V99H684z" />
          <path fill="#1B1C20" d="M670 99H684V113H670z" />
          <path fill="#1B1C20" d="M684 99H698V113H684z" />
          <path fill="#1B1C20" d="M698 85H712V99H698z" />
          <path fill="#1B1C20" d="M712 85H726V99H712z" />
          <path fill="#1B1C20" d="M698 99H712V113H698z" />
          <path fill="#1B1C20" d="M712 99H726V113H712z" />
          <path fill="#1B1C20" d="M670 113H684V127H670z" />
          <path fill="#1B1C20" d="M684 113H698V127H684z" />
          <path fill="#1B1C20" d="M670 127H684V141H670z" />
          <path fill="#1B1C20" d="M684 127H698V141H684z" />
          <path fill="#1B1C20" d="M698 113H712V127H698z" />
          <path fill="#1B1C20" d="M712 113H726V127H712z" />
          <path fill="#1B1C20" d="M698 127H712V141H698z" />
          <path fill="#1B1C20" d="M712 127H726V141H712z" />
          <path fill="#1B1C20" d="M726 29H740V43H726z" />
          <path fill="#1B1C20" d="M726 43H740V57H726z" />
          <path fill="#1B1C20" d="M726 57H740V71H726z" />
          <path fill="#1B1C20" d="M726 71H740V85H726z" />
          <path fill="#1B1C20" d="M726 85H740V99H726z" />
          <path fill="#1B1C20" d="M726 99H740V113H726z" />
          <path fill="#1B1C20" d="M726 127H740V141H726z" />
          <path fill="#1B1C20" d="M740 29H754V43H740z" />
          <path fill="#1B1C20" d="M740 43H754V57H740z" />
          <path fill="#1B1C20" d="M740 71H754V85H740z" />
          <path fill="#1B1C20" d="M740 85H754V99H740z" />
          <path fill="#1B1C20" d="M740 99H754V113H740z" />
          <path fill="#1B1C20" d="M740 113H754V127H740z" />
          <path fill="#1B1C20" d="M740 127H754V141H740z" />
          <path fill="#1B1C20" d="M754 29H768V43H754z" />
          <path fill="#1B1C20" d="M754 43H768V57H754z" />
          <path fill="#1B1C20" d="M754 57H768V71H754z" />
          <path fill="#1B1C20" d="M754 71H768V85H754z" />
          <path fill="#1B1C20" d="M754 85H768V99H754z" />
          <path fill="#1B1C20" d="M754 99H768V113H754z" />
          <path fill="#1B1C20" d="M754 113H768V127H754z" />
          <path fill="#1B1C20" d="M754 127H768V141H754z" />
          <path fill="#1B1C20" d="M768 29H782V43H768z" />
          <path fill="#1B1C20" d="M712 15H726V29H712z" />
          <path fill="#1B1C20" d="M726 15H740V29H726z" />
          <path fill="#1B1C20" d="M740 15H754V29H740z" />
          <path fill="#1B1C20" d="M754 15H768V29H754z" />
          <path fill="#1B1C20" d="M768 15H782V29H768z" />
          <path fill="#1B1C20" d="M642 15H656V29H642z" />
          <path fill="#1B1C20" d="M656 15H670V29H656z" />
          <path fill="#1B1C20" d="M642 1H656V15H642z" />
          <path fill="#1B1C20" d="M656 1H670V15H656z" />
          <path fill="#1B1C20" d="M670 15H684V29H670z" />
          <path fill="#1B1C20" d="M684 15H698V29H684z" />
          <path fill="#1B1C20" d="M698 15H712V29H698z" />
          <path fill="#1B1C20" d="M768 43H782V57H768z" />
          <path fill="#1B1C20" d="M1 169H15V183H1z" />
          <path fill="#1B1C20" d="M15 169H29V183H15z" />
          <path fill="#1B1C20" d="M1 183H15V197H1z" />
          <path fill="#1B1C20" d="M15 183H29V197H15z" />
          <path fill="#1B1C20" d="M740 43H754V57H740z" />
          <path fill="#1B1C20" d="M768 57H782V71H768z" />
          <path fill="#1B1C20" d="M768 71H782V85H768z" />
          <path fill="#1B1C20" d="M768 99H782V113H768z" />
          <path fill="#1B1C20" d="M768 113H782V127H768z" />
          <path fill="#1B1C20" d="M768 127H782V141H768z" />
          <path fill="#1B1C20" d="M782 29H796V43H782z" />
          <path fill="#1B1C20" d="M782 43H796V57H782z" />
          <path fill="#1B1C20" d="M782 57H796V71H782z" />
          <path fill="#1B1C20" d="M782 71H796V85H782z" />
          <path fill="#1B1C20" d="M782 85H796V99H782z" />
          <path fill="#1B1C20" d="M782 99H796V113H782z" />
          <path fill="#1B1C20" d="M782 113H796V127H782z" />
          <path fill="#1B1C20" d="M782 127H796V141H782z" />
          <path fill="#1B1C20" d="M796 29H810V43H796z" />
          <path fill="#1B1C20" d="M796 43H810V57H796z" />
          <path fill="#1B1C20" d="M796 57H810V71H796z" />
          <path fill="#1B1C20" d="M796 71H810V85H796z" />
          <path fill="#1B1C20" d="M796 85H810V99H796z" />
          <path fill="#1B1C20" d="M796 99H810V113H796z" />
          <path fill="#1B1C20" d="M796 113H810V127H796z" />
          <path fill="#1B1C20" d="M796 127H810V141H796z" />
          <path fill="#1B1C20" d="M670 141H684V155H670z" />
          <path fill="#1B1C20" d="M684 141H698V155H684z" />
          <path fill="#1B1C20" d="M670 155H684V169H670z" />
          <path fill="#1B1C20" d="M684 155H698V169H684z" />
          <path fill="#1B1C20" d="M698 141H712V155H698z" />
          <path fill="#1B1C20" d="M712 141H726V155H712z" />
          <path fill="#1B1C20" d="M698 155H712V169H698z" />
          <path fill="#1B1C20" d="M712 155H726V169H712z" />
          <path fill="#1B1C20" d="M670 169H684V183H670z" />
          <path fill="#041B06" d="M726 113H740V127H726z" />
          <path fill="#1B1C20" d="M684 169H698V183H684z" />
          <path fill="#1B1C20" d="M670 183H684V197H670z" />
          <path fill="#1B1C20" d="M684 183H698V197H684z" />
          <path fill="#3E473C" d="M740 57H754V71H740z" />
          <path fill="#1B1C20" d="M698 169H712V183H698z" />
          <path fill="#1B1C20" d="M712 169H726V183H712z" />
          <path fill="#1B1C20" d="M698 183H712V197H698z" />
          <path fill="#1B1C20" d="M712 183H726V197H712z" />
          <path fill="#1B1C20" d="M670 197H684V211H670z" />
          <path fill="#1B1C20" d="M684 197H698V211H684z" />
          <path fill="#1B1C20" d="M670 211H684V225H670z" />
          <path fill="#1B1C20" d="M684 211H698V225H684z" />
          <path fill="#1B1C20" d="M698 197H712V211H698z" />
          <path fill="#1B1C20" d="M712 197H726V211H712z" />
          <path fill="#1B1C20" d="M698 211H712V225H698z" />
          <path fill="#1B1C20" d="M712 211H726V225H712z" />
          <path fill="#1B1C20" d="M670 225H684V239H670z" />
          <path fill="#1B1C20" d="M684 225H698V239H684z" />
          <path fill="#1B1C20" d="M670 239H684V253H670z" />
          <path fill="#1B1C20" d="M684 239H698V253H684z" />
          <path fill="#1B1C20" d="M698 225H712V239H698z" />
          <path fill="#1B1C20" d="M712 225H726V239H712z" />
          <path fill="#1B1C20" d="M698 239H712V253H698z" />
          <path fill="#1B1C20" d="M712 239H726V253H712z" />
          <path fill="#1B1C20" d="M670 253H684V267H670z" />
          <path fill="#1B1C20" d="M684 253H698V267H684z" />
          <path fill="#1B1C20" d="M670 267H684V281H670z" />
          <path fill="#1B1C20" d="M684 267H698V281H684z" />
          <path fill="#1B1C20" d="M698 253H712V267H698z" />
          <path fill="#1B1C20" d="M712 253H726V267H712z" />
          <path fill="#1B1C20" d="M698 267H712V281H698z" />
          <path fill="#1B1C20" d="M712 267H726V281H712z" />
          <path fill="#1B1C20" d="M670 281H684V295H670z" />
          <path fill="#1B1C20" d="M684 281H698V295H684z" />
          <path fill="#1B1C20" d="M670 295H684V309H670z" />
          <path fill="#1B1C20" d="M684 295H698V309H684z" />
          <path fill="#1B1C20" d="M698 281H712V295H698z" />
          <path fill="#1B1C20" d="M712 281H726V295H712z" />
          <path fill="#202A1D" d="M768 85H782V99H768z" />
          <path fill="#1B1C20" d="M698 295H712V309H698z" />
          <path fill="#1B1C20" d="M712 295H726V309H712z" />
          <path fill="#1B1C20" d="M726 141H740V155H726z" />
          <path fill="#1B1C20" d="M726 155H740V169H726z" />
          <path fill="#1B1C20" d="M726 169H740V183H726z" />
          <path fill="#1B1C20" d="M726 183H740V197H726z" />
          <path fill="#1B1C20" d="M740 141H754V155H740z" />
          <path fill="#1B1C20" d="M740 169H754V183H740z" />
          <path fill="#1B1C20" d="M740 183H754V197H740z" />
          <path fill="#1B1C20" d="M726 197H740V211H726z" />
          <path fill="#1B1C20" d="M726 211H740V225H726z" />
          <path fill="#1B1C20" d="M726 225H740V239H726z" />
          <path fill="#1B1C20" d="M726 239H740V253H726z" />
          <path fill="#1B1C20" d="M726 253H740V267H726z" />
          <path fill="#1B1C20" d="M740 197H754V211H740z" />
          <path fill="#1B1C20" d="M740 211H754V225H740z" />
          <path fill="#1B1C20" d="M740 225H754V239H740z" />
          <path fill="#1B1C20" d="M740 239H754V253H740z" />
          <path fill="#1B1C20" d="M740 253H754V267H740z" />
          <path fill="#1B1C20" d="M754 197H768V211H754z" />
          <path fill="#1B1C20" d="M754 211H768V225H754z" />
          <path fill="#1B1C20" d="M754 239H768V253H754z" />
          <path fill="#1B1C20" d="M754 253H768V267H754z" />
          <path fill="#1B1C20" d="M768 197H782V211H768z" />
          <path fill="#1B1C20" d="M768 211H782V225H768z" />
          <path fill="#1B1C20" d="M768 225H782V239H768z" />
          <path fill="#1B1C20" d="M768 239H782V253H768z" />
          <path fill="#1B1C20" d="M768 253H782V267H768z" />
          <path fill="#1B1C20" d="M670 309H684V323H670z" />
          <path fill="#1B1C20" d="M684 309H698V323H684z" />
          <path fill="#1B1C20" d="M670 323H684V337H670z" />
          <path fill="#1B1C20" d="M684 323H698V337H684z" />
          <path fill="#1B1C20" d="M698 309H712V323H698z" />
          <path fill="#1B1C20" d="M698 323H712V337H698z" />
          <path fill="#1B1C20" d="M670 337H684V351H670z" />
          <path fill="#1B1C20" d="M684 337H698V351H684z" />
          <path fill="#1B1C20" d="M670 351H684V365H670z" />
          <path fill="#1B1C20" d="M684 351H698V365H684z" />
          <path fill="#1B1C20" d="M698 337H712V351H698z" />
          <path fill="#1B1C20" d="M698 351H712V365H698z" />
          <path fill="#041B06" d="M740 155H754V169H740z" />
          <path fill="#3E473C" d="M754 225H768V239H754z" />
        </g>
      </g>
    </svg>