<?xml version="1.0" encoding="UTF-8"?>
<svg width="1290px" height="722px" viewBox="0 0 1290 722" version="1.1" xmlns="http://www.w3.org/2000/svg" xmlns:xlink="http://www.w3.org/1999/xlink">
    <title>Group 23</title>
    <defs>
        <rect id="path-1" x="0" y="0" width="1290" height="670"></rect>
        <linearGradient x1="50%" y1="0%" x2="50%" y2="99.5592272%" id="linearGradient-3">
            <stop stop-color="#171B21" offset="0%"></stop>
            <stop stop-color="#212832" offset="100%"></stop>
        </linearGradient>
        <linearGradient x1="50%" y1="0%" x2="50%" y2="99.5592272%" id="linearGradient-4">
            <stop stop-color="#171B21" offset="0%"></stop>
            <stop stop-color="#212832" offset="100%"></stop>
        </linearGradient>
        <linearGradient x1="50%" y1="0%" x2="50%" y2="99.5592272%" id="linearGradient-5">
            <stop stop-color="#171B21" offset="0%"></stop>
            <stop stop-color="#212832" offset="100%"></stop>
        </linearGradient>
        <linearGradient x1="2.7676844%" y1="37.919799%" x2="91.9473275%" y2="60.4892273%" id="linearGradient-6">
            <stop stop-color="#1A2029" stop-opacity="0.54458042" offset="0%"></stop>
            <stop stop-color="#1A2029" stop-opacity="0.938292177" offset="100%"></stop>
        </linearGradient>
        <linearGradient x1="50%" y1="0%" x2="50%" y2="68.9002521%" id="linearGradient-7">
            <stop stop-color="#1A212A" stop-opacity="0.289089816" offset="0%"></stop>
            <stop stop-color="#1A212A" offset="100%"></stop>
        </linearGradient>
        <linearGradient x1="50%" y1="0%" x2="50%" y2="100%" id="linearGradient-8">
            <stop stop-color="#C2C8DF" offset="0%"></stop>
            <stop stop-color="#8E98BB" offset="100%"></stop>
        </linearGradient>
        <linearGradient x1="50%" y1="0%" x2="50%" y2="100%" id="linearGradient-9">
            <stop stop-color="#F1D787" offset="0%"></stop>
            <stop stop-color="#DEAD4F" offset="100%"></stop>
        </linearGradient>
        <linearGradient x1="50%" y1="0%" x2="50%" y2="100%" id="linearGradient-10">
            <stop stop-color="#8EACF4" offset="0%"></stop>
            <stop stop-color="#5573E5" offset="100%"></stop>
        </linearGradient>
        <rect id="path-11" x="96" y="412" width="198" height="55" rx="4"></rect>
        <filter x="-6.6%" y="-20.0%" width="113.1%" height="147.3%" filterUnits="objectBoundingBox" id="filter-12">
            <feOffset dx="0" dy="2" in="SourceAlpha" result="shadowOffsetOuter1"></feOffset>
            <feGaussianBlur stdDeviation="4" in="shadowOffsetOuter1" result="shadowBlurOuter1"></feGaussianBlur>
            <feColorMatrix values="0 0 0 0 0.0933830846   0 0 0 0 0.101873868   0 0 0 0 0.0986856492  0 0 0 0.5 0" type="matrix" in="shadowBlurOuter1"></feColorMatrix>
        </filter>
        <rect id="path-13" x="316" y="412" width="198" height="55" rx="4"></rect>
        <filter x="-6.6%" y="-20.0%" width="113.1%" height="147.3%" filterUnits="objectBoundingBox" id="filter-14">
            <feOffset dx="0" dy="2" in="SourceAlpha" result="shadowOffsetOuter1"></feOffset>
            <feGaussianBlur stdDeviation="4" in="shadowOffsetOuter1" result="shadowBlurOuter1"></feGaussianBlur>
            <feColorMatrix values="0 0 0 0 0.0941176471   0 0 0 0 0.101960784   0 0 0 0 0.0980392157  0 0 0 1 0" type="matrix" in="shadowBlurOuter1"></feColorMatrix>
        </filter>
        <rect id="path-15" x="0" y="0" width="1290" height="670"></rect>
    </defs>
    <g id="Page-1" stroke="none" stroke-width="1" fill="none" fill-rule="evenodd">
        <g id="mac-browser" transform="translate(0.000000, 1.000000)">
            <g id="Group-23" transform="translate(-10.000000, -1.000000)">
                <g id="Rectangle-+-Rectangle-+-Rectangle-+-Rectangle-+-Rectangle-+-Rectangle-+-Rectangle-Mask">
                    <mask id="mask-2" fill="white">
                        <use xlink:href="#path-1"></use>
                    </mask>
                    <use id="Mask" fill="#1E242F" xlink:href="#path-1"></use>
                    <polygon id="Rectangle" fill="#1B212B" mask="url(#mask-2)" transform="translate(1052.653786, -86.000000) rotate(40.000000) translate(-1052.653786, 86.000000) " points="426.624274 -168.877487 1679.33676 -173.670833 1678.6833 -3.1225126 425.970811 1.67083349"></polygon>
                    <polygon id="Rectangle" fill="#272F3C" mask="url(#mask-2)" transform="translate(795.189261, 141.413274) rotate(40.000000) translate(-795.189261, -141.413274) " points="-51.848068 59.3814452 1642.88005 52.8967822 1642.22659 223.445103 -52.5015314 229.929766"></polygon>
                    <polygon id="Rectangle" fill="url(#linearGradient-3)" mask="url(#mask-2)" transform="translate(870.073845, -16.575044) rotate(40.000000) translate(-870.073845, 16.575044) " points="191.806122 -99.2526488 1548.99503 -104.445761 1548.34157 66.1025602 191.152659 71.2956721"></polygon>
                    <polygon id="Rectangle" fill="#1F2531" mask="url(#mask-2)" transform="translate(75.552872, 215.947633) rotate(40.000000) translate(-75.552872, -215.947633) " points="-791.073786 133.99076 942.832993 127.356184 942.179529 297.904505 -791.72725 304.539081"></polygon>
                    <polygon id="Rectangle" fill="url(#linearGradient-4)" mask="url(#mask-2)" transform="translate(316.552080, 189.300951) rotate(40.000000) translate(-316.552080, -189.300951) " points="-605.326532 107.555493 1239.08416 100.498088 1238.43069 271.046409 -605.979995 278.103814"></polygon>
                    <polygon id="Rectangle" fill="url(#linearGradient-5)" mask="url(#mask-2)" transform="translate(-169.344084, 215.947633) rotate(40.000000) translate(169.344084, -215.947633) " points="-1035.97074 133.99076 697.936037 127.356184 697.282574 297.904505 -1036.62421 304.539081"></polygon>
                    <rect id="Rectangle" fill="url(#linearGradient-6)" mask="url(#mask-2)" x="0" y="0" width="1290" height="670"></rect>
                </g>
                <rect id="Rectangle" fill="url(#linearGradient-7)" x="9" y="542" width="1281" height="180"></rect>
            </g>
            <g id="Group-10" transform="translate(712.000000, -15.000000)">
                <line x1="187.1" y1="209" x2="57.5" y2="0.5" id="Line-2" stroke="url(#linearGradient-8)" stroke-width="43" stroke-linecap="square"></line>
                <line x1="318.1" y1="252" x2="165.5" y2="19" id="Line-2" stroke="url(#linearGradient-9)" stroke-width="44" stroke-linecap="square"></line>
                <line x1="212.1" y1="346" x2="1" y2="7.5" id="Line-2" stroke="url(#linearGradient-10)" stroke-width="49" stroke-linecap="square"></line>
                <g id="Group-9" transform="translate(167.000000, 209.000000)" fill-rule="nonzero">
                    <circle id="Oval" fill="#4A4F60" cx="38.7" cy="42.7" r="38.7"></circle>
                    <circle id="Oval" fill="#A9B4DD" cx="41.7" cy="38.7" r="38.7"></circle>
                    <path d="M40.4458904,48.8993151 C46.4006849,49.009589 52.2452055,49.119863 58.2,49.340411 C57.9794521,50.2226027 57.7589041,50.9945205 57.6486301,51.7664384 C57.3178082,52.8691781 56.9869863,53.8616438 56.7664384,54.9643836 C56.6561644,55.5157534 56.4356164,55.6260274 55.8842466,55.6260274 C48.4958904,55.6260274 41.2178082,55.6260274 33.8294521,55.6260274 C31.7342466,55.6260274 29.6390411,55.6260274 27.4335616,55.6260274 C28.4260274,51.7664384 29.4184932,48.1273973 30.4109589,44.2678082 C28.8671233,44.8191781 27.5438356,45.3705479 26,46.0321918 C26.4410959,44.3780822 26.8821918,42.9445205 27.4335616,41.4006849 C27.4335616,41.180137 27.7643836,41.069863 27.9849315,41.069863 C28.9773973,40.6287671 30.080137,40.2979452 31.0726027,39.8568493 C31.4034247,39.7465753 31.7342466,39.4157534 31.7342466,39.0849315 C33.2780822,33.3506849 34.8219178,27.6164384 36.3657534,21.8821918 C36.4760274,21.2205479 36.6965753,21 37.4684932,21 C40.5561644,21 43.6438356,21 46.7315068,21 C46.9520548,21 47.1726027,21 47.5034247,21 C46.290411,25.5212329 45.1876712,30.0424658 43.9746575,34.7842466 C45.7390411,34.0123288 47.3931507,33.3506849 49.2678082,32.6890411 C49.0472603,33.5712329 48.7164384,34.3431507 48.6061644,35.1150685 C48.3856164,36.8794521 47.3931507,37.8719178 45.6287671,38.3130137 C44.8568493,38.5335616 44.0849315,38.8643836 43.3130137,39.1952055 C43.0924658,39.3054795 42.7616438,39.6363014 42.6513699,39.8568493 C41.8794521,42.8342466 41.1075342,45.7013699 40.4458904,48.6787671 C40.4458904,48.6787671 40.4458904,48.7890411 40.4458904,48.8993151 Z" id="Shape" fill="#FFFFFF"></path>
                </g>
                <g id="Group" transform="translate(189.000000, 334.000000)" fill-rule="nonzero">
                    <circle id="Oval" fill="#3B4D91" cx="43.7" cy="48.7" r="43.7"></circle>
                    <circle id="Oval" fill="#6182FF" cx="46.7" cy="43.7" r="43.7"></circle>
                    <g id="Group-7" transform="translate(44.655003, 43.062984) rotate(-27.000000) translate(-44.655003, -43.062984) translate(25.655003, 17.562984)">
                        <path d="M20,1 C20,1 20,1 20,1 C20,1.16126809 20,1.32253618 20,1.48380427 C20,7.45072364 20,13.4982771 20,19.4651964 C20,19.5458305 20,19.7070986 20,19.7877326 C20,19.8683666 19.9183673,19.9490007 19.8367347,19.9490007 C19.2653061,20.1909028 18.7755102,20.432805 18.2040816,20.6747071 C17.4693878,20.9972433 16.6530612,21.3197795 15.9183673,21.7229497 C15.0204082,22.1261199 14.122449,22.5292901 13.2244898,22.9324604 C12.4897959,23.2549966 11.755102,23.5775327 11.0204082,23.9000689 C10.122449,24.3032391 9.2244898,24.7064094 8.32653061,25.1095796 C7.59183673,25.4321158 6.85714286,25.754652 6.04081633,26.1578222 C5.46938776,26.3997243 4.81632653,26.7222605 4.24489796,26.9641626 C4.16326531,26.9641626 4.16326531,27.0447967 4.08163265,26.9641626 C4.08163265,26.9641626 4.08163265,26.9641626 4,26.9641626 C4.24489796,26.5609924 4.48979592,26.2384562 4.73469388,25.835286 C6.04081633,23.6581668 7.42857143,21.4810476 8.73469388,19.3039283 C10.122449,16.965541 11.5918367,14.6271537 12.9795918,12.2887664 C14.2857143,10.1116471 15.5918367,7.93452791 16.8979592,5.83804273 C17.877551,4.22536182 18.8571429,2.69331496 19.755102,1.08063405 C19.9183673,1.08063405 19.9183673,1 20,1 C19.9183673,1 20,1 20,1 C20,1 20,1 20,1 Z" id="Shape" fill="#FFFFFF" transform="translate(12.000000, 14.000000) rotate(6.000000) translate(-12.000000, -14.000000) "></path>
                        <path d="M34.655003,27.3729766 L34.655003,27.3729766 L34.655003,27.3729766 C34.655003,27.3729766 34.655003,27.3729766 34.655003,27.3729766 C33.4242337,28.161154 32.1114132,28.8705136 30.880644,29.5798732 C26.8601312,31.8655875 22.9216696,34.072484 18.9011568,36.3581983 C18.8191055,36.3581983 18.8191055,36.437016 18.7370543,36.437016 C18.655003,36.437016 18.655003,36.3581983 18.655003,36.3581983 C18.655003,36.2793806 18.655003,36.2005628 18.655003,36.1217451 C18.655003,30.9985924 18.655003,25.8754397 18.655003,20.752287 C18.655003,20.6734692 18.655003,20.5946515 18.655003,20.5158338 C18.655003,20.437016 18.7370543,20.437016 18.8191055,20.437016 C19.1473107,20.5946515 19.4755158,20.752287 19.8857722,20.9099224 C20.8703876,21.3828288 21.9370543,21.7769175 22.9216696,22.2498239 C23.8242337,22.6439126 24.6447466,23.0380012 25.5473107,23.3532722 C26.4498748,23.7473609 27.2703876,24.1414495 28.1729517,24.5355382 C28.9114132,24.8508091 29.7319261,25.1660801 30.4703876,25.5601687 C31.2088491,25.8754397 32.029362,26.1907106 32.7678235,26.5847993 C33.3421825,26.8212525 33.9165414,27.1365234 34.5729517,27.3729766 C34.5729517,27.2941589 34.5729517,27.3729766 34.655003,27.3729766 Z" id="Shape" fill="#F0F3FF" transform="translate(26.655003, 28.437016) rotate(6.000000) translate(-26.655003, -28.437016) "></path>
                        <path d="M17.7809709,49.747022 C17.7809709,49.747022 17.7809709,49.747022 17.7809709,49.747022 C17.7809709,49.747022 17.6989196,49.747022 17.7809709,49.747022 C17.6989196,49.747022 17.6989196,49.747022 17.6168684,49.6664359 C15.9758427,47.4100256 14.4168684,45.2342015 12.7758427,42.9777912 C11.1348171,40.721381 9.49379144,38.4649707 7.8527658,36.2085604 C6.29379144,34.0327363 4.6527658,31.8569121 3.09379144,29.6005018 C2.68353503,29.0363993 2.27327862,28.4722967 1.86302221,27.9081941 C1.86302221,27.8276081 1.78097093,27.8276081 1.78097093,27.747022 C1.86302221,27.747022 1.86302221,27.8276081 1.94507349,27.8276081 C4.16045811,29.1169853 6.457894,30.4063626 8.67327862,31.6957399 C11.2168684,33.2268755 13.8425094,34.6774249 16.3860991,36.2085604 C16.7963555,36.4503187 17.2886632,36.6920769 17.6989196,36.9338352 C17.7809709,36.9338352 17.7809709,37.0144212 17.7809709,37.0950073 C17.7809709,37.1755934 17.7809709,37.2561795 17.7809709,37.3367656 C17.7809709,41.3660696 17.7809709,45.3147875 17.7809709,49.3440916 C17.7809709,49.4246777 17.7809709,49.5858498 17.7809709,49.747022 Z" id="Shape" fill="#FFFFFF" transform="translate(9.780971, 38.747022) rotate(6.000000) translate(-9.780971, -38.747022) "></path>
                        <path d="M4,27 C4,27 4.1,27 4,27 C4.1,27 4.1,27 4,27 C4,27.1 4,27.1 4,27 C4,27 4,27 4,27 C4,27 4,27 4,27 Z" id="Shape" fill="#FFFFFF" transform="translate(4.500000, 27.500000) rotate(6.000000) translate(-4.500000, -27.500000) "></path>
                        <path d="M2.76399645,27.0265038 C2.76399645,26.9482429 2.76399645,26.9482429 2.76399645,27.0265038 C3.58450927,26.6351994 4.40502209,26.322156 5.22553491,25.9308516 C6.29220158,25.4612864 7.35886825,24.9917212 8.42553491,24.522156 C9.24604773,24.1308516 10.0665606,23.8178081 10.8870734,23.4265038 C12.0357913,22.8786777 13.2665606,22.4091125 14.4152785,21.8612864 C15.2357913,21.5482429 16.0563041,21.1569386 16.876817,20.8438951 C17.4511759,20.6091125 18.0255349,20.3743299 18.5998939,20.0612864 C18.6819452,20.0612864 18.6819452,19.9830255 18.7639965,19.9830255 C18.7639965,19.9830255 18.7639965,19.9830255 18.7639965,20.0612864 C18.7639965,20.1395473 18.7639965,20.1395473 18.7639965,20.2178081 C18.7639965,25.3830255 18.7639965,30.5482429 18.7639965,35.7134603 C18.7639965,35.7917212 18.7639965,35.869982 18.7639965,35.9482429 C18.6819452,36.0265038 18.6819452,35.9482429 18.5998939,35.9482429 C18.35374,35.7917212 18.1075862,35.7134603 17.9434836,35.5569386 C12.9383554,32.7395473 7.93322722,29.922156 2.92809902,27.1047647 C2.84604773,27.0265038 2.76399645,27.0265038 2.76399645,27.0265038 Z" id="Shape" fill="#F0F3FF" transform="translate(10.763996, 27.983026) rotate(6.000000) translate(-10.763996, -27.983026) "></path>
                        <path d="M32.7809709,27.747022 C32.7809709,27.747022 32.7809709,27.747022 32.7809709,27.747022 C32.7809709,27.8276081 32.7809709,27.8276081 32.7032507,27.9081941 C28.1954787,34.5162527 23.6877067,41.0437253 19.1799347,47.6517839 C18.7136134,48.3770586 18.2472922,49.0217473 17.7809709,49.747022 C17.7809709,49.747022 17.7809709,49.747022 17.7809709,49.6664359 C17.7809709,49.5858498 17.7809709,49.5858498 17.7809709,49.5052637 C17.7809709,45.3953736 17.7809709,41.2854835 17.7809709,37.1755934 C17.7809709,37.0950073 17.7809709,37.0144212 17.7809709,36.9338352 C18.7913336,36.2891465 19.8016963,35.6444579 20.812059,35.0803553 C24.7757896,32.6627729 28.7395201,30.2451905 32.7032507,27.8276081 C32.7032507,27.747022 32.7809709,27.747022 32.7809709,27.747022 Z" id="Shape" fill="#FFFFFF" transform="translate(25.280971, 38.747022) rotate(6.000000) translate(-25.280971, -38.747022) "></path>
                        <path d="M19.9830255,22.1082777 C19.9830255,22.1082777 19.9830255,22.1082777 19.9830255,22.1082777 C19.9830255,22.0272808 19.9830255,21.9462839 19.9830255,21.9462839 C19.9830255,15.7905207 19.9830255,9.55376056 19.9830255,3.39799732 C19.9830255,3.31700043 19.9830255,3.23600355 19.9830255,3.23600355 C25.261376,11.8216733 30.5397266,20.4073431 35.8180771,28.9930129 C35.9005513,29.0740098 35.9830255,29.1550067 35.9830255,29.2360035 C35.6531286,29.0740098 35.3232317,28.912016 34.9108606,28.7500222 C34.4984894,28.5880285 34.0861183,28.3450378 33.6737472,28.183044 C33.4263245,28.1020472 33.1789018,27.9400534 32.8490049,27.8590565 C32.4366338,27.6970627 31.9417884,27.4540721 31.5294173,27.2920783 C31.2819946,27.2110814 31.0345719,27.0490877 30.7871492,26.9680908 C30.2098296,26.7251001 29.6325101,26.4821095 29.0551905,26.2391188 C28.7252936,26.077125 28.4778709,25.9961282 28.147974,25.8341344 C27.7356028,25.6721406 27.3232317,25.42915 26.9108606,25.2671562 C26.6634379,25.1861593 26.4160152,25.0241655 26.1685925,24.9431687 C25.5912729,24.700178 25.0139534,24.4571873 24.4366338,24.2141967 C24.1067369,24.0522029 23.8593142,23.971206 23.5294173,23.8092123 C23.1170461,23.6472185 22.704675,23.4042278 22.2923039,23.2422341 C22.0448812,23.0802403 21.7149843,22.9992434 21.4675616,22.8372497 C20.9727162,22.594259 20.4778709,22.3512683 19.9830255,22.1082777 C19.9830255,22.1082777 19.9830255,22.1082777 19.9830255,22.1082777 Z" id="Shape" fill="#FFFFFF" transform="translate(27.983026, 16.236004) rotate(6.000000) translate(-27.983026, -16.236004) "></path>
                    </g>
                </g>
                <g id="Group" transform="translate(297.000000, 243.000000)" fill-rule="nonzero">
                    <circle id="Oval" fill="#8F6F30" cx="33.7" cy="37.5" r="33.7"></circle>
                    <circle id="Oval" fill="#FBC45A" cx="36.7" cy="34.5" r="33.7"></circle>
                    <path d="M27.1,19.3 C28.2,19.6 29.3,19.8 30.4,20.1 C31.5,20.4 32.6,20.6 33.7,20.9 C34,21 34.1,20.9 34.2,20.6 C34.6,18.9 35,17.3 35.4,15.6 C35.5,15.3 35.6,15.2 35.9,15.3 C36.9,15.6 37.8,15.8 38.8,16 C39.1,16.1 39.1,16.2 39,16.4 C38.6,18 38.2,19.7 37.8,21.3 C37.8,21.4 37.8,21.5 37.7,21.7 C38.5,21.9 39.4,22.1 40.2,22.3 C40.3,22.3 40.4,22.1 40.5,22 C40.8,20.7 41.1,19.5 41.5,18.2 C41.6,17.8 41.7,17.4 41.8,17 C41.8,16.8 41.9,16.7 42.1,16.8 C43.1,17.1 44.1,17.3 45.2,17.6 C45.3,17.6 45.3,17.7 45.4,17.7 C45.1,19 44.8,20.2 44.5,21.4 C44.4,21.9 44.3,22.4 44.1,22.9 C44,23.2 44.1,23.3 44.4,23.4 C45.5,23.9 46.6,24.4 47.7,24.9 C48.7,25.5 49.6,26.3 50.3,27.3 C51.2,28.8 51.3,30.4 50.9,32 C50.6,33.1 50.2,34.1 49.4,34.9 C48.8,35.5 48,35.9 47.2,36.2 C47.1,36.2 47,36.3 46.8,36.3 C47.2,36.6 47.6,36.8 48,37.1 C49.2,38 50,39.1 50.4,40.5 C50.6,41.6 50.5,42.8 50.2,43.9 C49.8,45.3 49.3,46.5 48.4,47.6 C47.3,48.9 45.9,49.6 44.3,49.8 C42.2,50.1 40.2,49.9 38.2,49.6 C37.9,49.5 37.7,49.6 37.6,49.9 C37.2,51.5 36.8,53.2 36.4,54.8 C36.3,55.2 36.3,55.3 35.8,55.1 C34.9,54.9 33.9,54.6 33,54.4 C32.7,54.3 32.7,54.2 32.8,54 C33.2,52.3 33.6,50.6 34.1,49 C34.1,48.8 34.2,48.7 34,48.6 C33.2,48.4 32.4,48.2 31.5,48 C31.3,48.9 31,49.8 30.8,50.7 C30.6,51.6 30.3,52.5 30.1,53.4 C30,53.6 30,53.7 29.7,53.6 C28.7,53.3 27.7,53.1 26.7,52.9 C26.4,52.8 26.4,52.7 26.5,52.5 C26.9,50.8 27.3,49.1 27.8,47.5 C27.8,47.4 27.9,47.3 27.9,47.1 C25.6,46.5 23.3,45.9 20.9,45.3 C21.1,44.9 21.2,44.6 21.4,44.2 C21.8,43.3 22.2,42.4 22.5,41.6 C22.6,41.3 22.7,41.3 23,41.3 C23.7,41.5 24.5,41.7 25.2,41.8 C26,42 26.6,41.6 26.7,40.9 C28,35.8 29.3,30.7 30.5,25.5 C30.7,24.7 30.2,23.8 29.3,23.5 C28.4,23.2 27.5,23 26.7,22.8 C26.5,22.8 26.4,22.7 26.5,22.5 C26.8,21.4 27.1,20.2 27.4,19.1 C27,19.4 27,19.4 27.1,19.3 Z M32.2,44 C32.3,44 32.4,44.1 32.4,44.1 C34,44.5 35.7,45 37.4,45.1 C38.6,45.2 39.7,45.2 40.8,44.8 C42.7,44.2 43.5,41.7 42.4,40.1 C41.9,39.3 41.1,38.8 40.3,38.3 C38.5,37.3 36.4,36.9 34.4,36.5 C34.1,36.4 34.1,36.5 34,36.8 C33.8,37.8 33.5,38.7 33.3,39.7 C32.9,41.1 32.6,42.5 32.2,44 Z M40.6,33.8 C40.8,33.8 41.3,33.7 41.7,33.6 C43.6,33.2 44.6,31 43.6,29.3 C43.1,28.4 42.2,27.8 41.3,27.4 C39.9,26.8 38.5,26.5 37,26.1 C36.7,26 36.6,26.1 36.5,26.4 C36,28.5 35.5,30.5 34.9,32.6 C34.8,32.8 34.9,32.9 35.1,33 C35.5,33.1 35.8,33.2 36.2,33.3 C37.7,33.5 39,33.8 40.6,33.8 Z" id="Shape" fill="#FFFFFF"></path>
                </g>
            </g>
            <rect id="Rectangle" fill="#1A212A" x="0" y="671" width="1280" height="3908"></rect>
            <g id="Group-23" transform="translate(0.000000, -1.000000)">
                <g id="Rectangle-+-Rectangle-+-Rectangle-+-Rectangle-+-Rectangle-+-Rectangle-+-Rectangle-Mask">
                    <mask id="mask-16" fill="white">
                        <use xlink:href="#path-15"></use>
                    </mask>
                    <use id="Mask" fill="#1E242F" xlink:href="#path-15"></use>
                    <polygon id="Rectangle" fill="#1B212B" mask="url(#mask-16)" transform="translate(1052.653786, -86.000000) rotate(40.000000) translate(-1052.653786, 86.000000) " points="426.624274 -168.877487 1679.33676 -173.670833 1678.6833 -3.1225126 425.970811 1.67083349"></polygon>
                    <polygon id="Rectangle" fill="#272F3C" mask="url(#mask-16)" transform="translate(795.189261, 141.413274) rotate(40.000000) translate(-795.189261, -141.413274) " points="-51.848068 59.3814452 1642.88005 52.8967822 1642.22659 223.445103 -52.5015314 229.929766"></polygon>
                    <polygon id="Rectangle" fill="url(#linearGradient-3)" mask="url(#mask-16)" transform="translate(870.073845, -16.575044) rotate(40.000000) translate(-870.073845, 16.575044) " points="191.806122 -99.2526488 1548.99503 -104.445761 1548.34157 66.1025602 191.152659 71.2956721"></polygon>
                    <polygon id="Rectangle" fill="#1F2531" mask="url(#mask-16)" transform="translate(75.552872, 215.947633) rotate(40.000000) translate(-75.552872, -215.947633) " points="-791.073786 133.99076 942.832993 127.356184 942.179529 297.904505 -791.72725 304.539081"></polygon>
                    <polygon id="Rectangle" fill="url(#linearGradient-4)" mask="url(#mask-16)" transform="translate(316.552080, 189.300951) rotate(40.000000) translate(-316.552080, -189.300951) " points="-605.326532 107.555493 1239.08416 100.498088 1238.43069 271.046409 -605.979995 278.103814"></polygon>
                    <polygon id="Rectangle" fill="url(#linearGradient-5)" mask="url(#mask-16)" transform="translate(-169.344084, 215.947633) rotate(40.000000) translate(169.344084, -215.947633) " points="-1035.97074 133.99076 697.936037 127.356184 697.282574 297.904505 -1036.62421 304.539081"></polygon>
                    <rect id="Rectangle" fill="url(#linearGradient-6)" mask="url(#mask-16)" x="0" y="0" width="1290" height="670"></rect>
                </g>
                <rect id="Rectangle" fill="url(#linearGradient-7)" x="9" y="542" width="1281" height="180"></rect>
            </g>
        </g>
    </g>
</svg>