<svg version="1.1" xmlns="http://www.w3.org/2000/svg" xmlns:xlink="http://www.w3.org/1999/xlink" viewBox="0 0 172 172"><g fill="none" fill-rule="nonzero" stroke="none" stroke-width="1" stroke-linecap="butt" stroke-linejoin="miter" stroke-miterlimit="10" stroke-dasharray="" stroke-dashoffset="0" font-family="none" font-weight="none" font-size="none" text-anchor="none" style="mix-blend-mode: normal"><path d="M0,172v-172h172v172z" fill="none"></path><g fill="#00d7b8"><path d="M19.84615,0c-10.95673,0 -19.84615,8.88942 -19.84615,19.84615v92.61538c0,10.95673 8.88942,19.84615 19.84615,19.84615h46.30769v6.61538c0,3.64363 2.97176,6.61538 6.61538,6.61538h26.46154c3.64363,0 6.61538,-3.41106 6.61538,-6.61538v-6.61538h46.30769c10.95673,0 19.84615,-8.88942 19.84615,-19.84615v-92.61538c0,-10.95673 -8.88942,-19.84615 -19.84615,-19.84615zM19.84615,13.23077h132.30769c3.64363,0 6.61538,2.97176 6.61538,6.61538v79.38462c0,3.64363 -2.97176,6.61538 -6.61538,6.61538h-132.30769c-3.64363,0 -6.61538,-2.97176 -6.61538,-6.61538v-79.38462c0,-3.64363 2.97176,-6.61538 6.61538,-6.61538zM152.15385,112.25481c3.79868,0 6.82212,3.04928 6.82212,6.82212c0,3.79868 -3.02344,6.82212 -6.82212,6.82212c-3.77283,0 -6.82212,-3.02344 -6.82212,-6.82212c0,-3.77283 3.04928,-6.82212 6.82212,-6.82212zM39.69231,152.15385c-3.64363,0 -6.61538,6.61538 -6.61538,6.61538v6.61538h105.84615v-6.61538c0,-3.64363 -2.97176,-6.61538 -6.61538,-6.61538z"></path></g></g></svg>