<svg xmlns="http://www.w3.org/2000/svg" viewBox="0 0 81 82">
  <g
    fill="none"
    fillRule="nonzero"
    stroke="none"
    strokeWidth="1"
    transform="translate(-856 -190) translate(856 190)"
  >
    <circle cx="38.7" cy="42.7" r="38.7" fill="#4A4F60" />
    <circle cx="41.7" cy="38.7" r="38.7" fill="#A9B4DD" />
    <path
      fill="#FFF"
      d="M40.446 48.9c5.955.11 11.8.22 17.754.44-.22.883-.441 1.655-.551 2.426-.331 1.103-.662 2.096-.883 3.198-.11.552-.33.662-.882.662h-28.45c.992-3.86 1.984-7.499 2.977-11.358-1.544.551-2.867 1.103-4.411 1.764a56.817 56.817 0 011.434-4.631c0-.22.33-.331.55-.331.993-.441 2.096-.772 3.089-1.213.33-.11.661-.441.661-.772l4.632-17.203c.11-.661.33-.882 1.102-.882h10.035c-1.213 4.521-2.315 9.042-3.528 13.784a75.5 75.5 0 015.293-2.095c-.22.882-.552 1.654-.662 2.426-.22 1.764-1.213 2.757-2.977 3.198-.772.22-1.544.551-2.316.882-.22.11-.551.441-.662.662-.772 2.977-1.543 5.844-2.205 8.822v.22z"
    />
  </g>
</svg>