<svg xmlns="http://www.w3.org/2000/svg" viewBox="0 0 91 93">
  <g
    fill="none"
    fillRule="nonzero"
    stroke="none"
    strokeWidth="1"
    transform="translate(-878 -315) translate(856 190) translate(22 125)"
  >
    <circle cx="43.7" cy="48.7" r="43.7" fill="#3B4D91" />
    <circle cx="46.7" cy="43.7" r="43.7" fill="#6182FF" />
    <path
      fill="#FFF"
      d="M20 1V19.788c0 .08-.082.161-.163.161-.572.242-1.061.484-1.633.726-.735.322-1.55.645-2.286 1.048l-2.694 1.21-2.204.967-2.693 1.21c-.735.322-1.47.645-2.286 1.048-.572.242-1.225.564-1.796.806-.082 0-.082.08-.163 0H4c.245-.403.49-.726.735-1.129 1.306-2.177 2.694-4.354 4-6.531 1.387-2.338 2.857-4.677 4.245-7.015 1.306-2.177 2.612-4.354 3.918-6.451.98-1.613 1.96-3.145 2.857-4.757.163 0 .163-.081.245-.081-.082 0 0 0 0 0z"
      transform="rotate(-27 68.405 -19.149) rotate(6 12 14)"
    />
    <path
      fill="#F0F3FF"
      d="M34.655 27.373c-1.23.788-2.544 1.498-3.774 2.207-4.02 2.286-7.96 4.492-11.98 6.778-.082 0-.082.079-.164.079s-.082-.079-.082-.079v-.236-15.37-.236c0-.079.082-.079.164-.079.328.158.657.315 1.067.473.984.473 2.051.867 3.036 1.34.902.394 1.723.788 2.625 1.103.903.394 1.723.788 2.626 1.183.738.315 1.559.63 2.297 1.024.739.315 1.56.63 2.298 1.025.574.236 1.149.552 1.805.788 0-.079 0 0 .082 0z"
      transform="rotate(-27 68.405 -19.149) rotate(6 26.655 28.437)"
    />
    <path
      fill="#FFF"
      d="M17.781 49.747s-.082 0 0 0c-.082 0-.082 0-.164-.08-1.641-2.257-3.2-4.433-4.841-6.69L7.853 36.21c-1.56-2.176-3.2-4.352-4.76-6.608l-1.23-1.693c0-.08-.082-.08-.082-.161.082 0 .082.08.164.08 2.215 1.29 4.513 2.58 6.728 3.869 2.544 1.53 5.17 2.981 7.713 4.513.41.241.903.483 1.313.725.082 0 .082.08.082.161v12.652z"
      transform="rotate(-27 68.405 -19.149) rotate(6 9.781 38.747)"
    />
    <path
      fill="#FFF"
      d="M4 27s.1 0 0 0c.1 0 .1 0 0 0 0 .1 0 .1 0 0z"
      transform="rotate(-27 68.405 -19.149) rotate(6 4.5 27.5)"
    />
    <path
      fill="#F0F3FF"
      d="M2.764 27.027c0-.079 0-.079 0 0 .82-.392 1.641-.705 2.462-1.096l3.2-1.409c.82-.391 1.64-.704 2.461-1.095 1.149-.548 2.38-1.018 3.528-1.566.82-.313 1.641-.704 2.462-1.017.574-.235 1.149-.47 1.723-.783.082 0 .082-.078.164-.078V35.948c-.082.079-.082 0-.164 0-.246-.156-.492-.235-.657-.391L2.928 27.105c-.082-.078-.164-.078-.164-.078z"
      transform="rotate(-27 68.405 -19.149) rotate(6 10.764 27.983)"
    />
    <path
      fill="#FFF"
      d="M32.781 27.747c0 .08 0 .08-.078.161-4.508 6.608-9.015 13.136-13.523 19.744-.466.725-.933 1.37-1.399 2.095v-.08-.162-12.33-.241c1.01-.645 2.02-1.29 3.031-1.854l11.891-7.252c0-.081.078-.081.078-.081z"
      transform="rotate(-27 68.405 -19.149) rotate(6 25.281 38.747)"
    />
    <path
      fill="#FFF"
      d="M19.983 22.108v-.162V3.398v-.162l15.835 25.757c.083.081.165.162.165.243-.33-.162-.66-.324-1.072-.486-.413-.162-.825-.405-1.237-.567-.248-.081-.495-.243-.825-.324-.412-.162-.907-.405-1.32-.567-.247-.08-.494-.243-.742-.324l-1.732-.729c-.33-.162-.577-.243-.907-.405-.412-.162-.825-.405-1.237-.567-.248-.08-.495-.243-.742-.324l-1.732-.729c-.33-.162-.578-.243-.908-.405-.412-.162-.824-.405-1.237-.567-.247-.162-.577-.243-.824-.405l-1.485-.729z"
      transform="rotate(-27 68.405 -19.149) rotate(6 27.983 16.236)"
    />
  </g>
</svg>