<?xml version="1.0" encoding="UTF-8"?>
<svg width="90px" height="81px" viewBox="0 0 90 81" version="1.1" xmlns="http://www.w3.org/2000/svg" xmlns:xlink="http://www.w3.org/1999/xlink">
    <!-- Generator: Sketch 50.2 (55047) - http://www.bohemiancoding.com/sketch -->
    <title>privacy</title>
    <desc>Created with Sketch.</desc>
    <defs></defs>
    <g id="Faast-Lander" stroke="none" stroke-width="1" fill="none" fill-rule="evenodd">
        <g id="Final-Design" transform="translate(-605.000000, -3115.000000)" fill="#212121" fill-rule="nonzero">
            <path d="M627.806818,3171.76136 L625.25,3175.75 C623.715909,3174.72727 622.079545,3173.60227 620.545455,3172.47727 L623.511364,3168.69318 C624.943182,3169.81818 626.375,3170.84091 627.806818,3171.76136 Z M657.568182,3177.59091 C655.829545,3178 654.193182,3178.20455 652.454545,3178.40909 L652.863636,3183.21591 C654.806818,3183.01136 656.75,3182.70455 658.590909,3182.29545 L657.568182,3177.59091 Z M667.386364,3174.11364 C665.75,3174.93182 664.215909,3175.54545 662.579545,3176.15909 L664.215909,3180.65909 C665.954545,3180.04545 667.795455,3179.22727 669.534091,3178.40909 L667.386364,3174.11364 Z M676.284091,3168.59091 C674.852273,3169.61364 673.420455,3170.63636 671.886364,3171.55682 L674.443182,3175.64773 C675.977273,3174.625 677.613636,3173.60227 679.147727,3172.47727 L676.284091,3168.59091 Z M619.420455,3165.31818 C618.193182,3164.19318 616.863636,3162.86364 615.636364,3161.63636 L612.159091,3164.90909 C613.488636,3166.34091 614.818182,3167.67045 616.25,3168.89773 L619.420455,3165.31818 Z M684.363636,3161.53409 C683.136364,3162.76136 681.806818,3163.98864 680.477273,3165.21591 L683.647727,3168.79545 C685.079545,3167.56818 686.409091,3166.23864 687.840909,3164.90909 L684.363636,3161.53409 Z M642.125,3177.79545 L641.204545,3182.5 C643.147727,3182.90909 645.090909,3183.11364 647.034091,3183.21591 L647.340909,3178.40909 C645.602273,3178.40909 643.863636,3178.10227 642.125,3177.79545 Z M693.465909,3155.5 L695,3157.34091 L691.318182,3160.30682 L689.784091,3158.46591 C682.931818,3150.07955 675.977273,3144.04545 668.715909,3140.15909 L620.340909,3196 L616.761364,3192.82955 L639.363636,3166.75 C634.352273,3161.43182 634.147727,3153.04545 639.056818,3147.42045 C641.613636,3144.45455 645.090909,3142.71591 648.977273,3142.51136 C652.25,3142.30682 655.522727,3143.22727 658.181818,3145.06818 L664.215909,3138.11364 C659.409091,3136.27273 654.602273,3135.35227 649.693182,3135.45455 C626.988636,3135.96591 610.420455,3158.15909 610.318182,3158.36364 L608.886364,3160.30682 L605,3157.54545 L606.431818,3155.60227 C607.147727,3154.57955 624.534091,3131.36364 649.590909,3130.75 C655.727273,3130.54545 661.659091,3131.77273 667.590909,3134.32955 L684.363636,3115 L687.943182,3118.17045 L671.988636,3136.57955 C679.352273,3140.67045 686.511364,3147.01136 693.465909,3155.5 Z M642.534091,3163.17045 L655.113636,3148.64773 C653.375,3147.625 651.431818,3147.11364 649.386364,3147.21591 C646.829545,3147.42045 644.477273,3148.54545 642.738636,3150.48864 C639.465909,3154.27273 639.568182,3159.59091 642.534091,3163.17045 Z" id="privacy"></path>
        </g>
    </g>
</svg>