<svg xmlns="http://www.w3.org/2000/svg" viewBox="0 0 512 512" width="96px" height="96px"><path fill="#BCBCBC" d="M412.2,42.2c0-0.1,0-0.1,0-0.2c-1.1,1.3-2.4,2.6-3.5,3.9c-2.9,3.2-5.6,6.7-8.6,9.9c-5.2,5.6-11.1,10.4-16.5,15.8c-4.7,4.7-10.9,10.7-11.6,17.8c-0.7,6.8,6,13.8,10.5,17.9c0.6,0.6,1.2,1.1,1.9,1.7c-0.7-2.8-0.9-5.6-0.3-8.6c2.3-10.3,7.4-20.5,14.3-28.6c5.1-5.9,13.1-11.2,16.3-18.4C415.7,51.1,412.7,45.3,412.2,42.2z"/><path fill="#D6E5E5" d="M463.7,119.8c-0.3-4.8-0.7-9.7-0.9-14.7c-2.8,3.4-5.9,6.6-9,9.6c-7.4,7.2-15.2,15.3-24.7,19.6c-19.3,8.5-37.7-4.2-51.8-16.9c-6.3-5.7-13.4-12.9-15.4-21.5c-2-8.7,0.7-16.4,6.1-23.4c5.7-7.4,12.9-13.2,19.5-19.6c3.3-3.2,6.2-6.7,9.3-10.2c1-1.2,2.2-2.3,3.3-3.5c-13.3,0.1-26.6-1-39.7,2.2c-12.3,3-24.6,8.2-33.9,16.9c-9.9,9.1-16.7,20.8-19.5,34c-3.4,15.7-2.1,31.7-2,47.7c0,1.9-0.8,3.3-1.9,4.3c-4.2,21.7-14.5,41.6-28.6,58.7c-17.1,20.8-36.1,40.3-54.9,59.5c-10.3,10.4-21.6,20.1-31.3,31.1c-7.7,8.6-14.3,19-24.1,25.5c-10.7,7-22.2,6-33.9,2.2c-10.7-3.4-20.5-7.2-31.8-6.5c-20,1.3-42.4,11-51.7,29.9c-5.8,11.8-5.7,26.4-5.2,39.3c0.3,7.4,1.4,14.7,1.8,22.2c0.2,4,0.4,8,0.8,12c8.5-12,16.7-24.3,27.6-34.2c12.5-11.3,29.5-20.1,45.6-10c9.2,5.8,16.2,13.9,22.9,22.3c6.6,8.3,14.8,16.1,19.8,25.4c11.6,21.5-6.8,42-17.1,60.3c2.1-0.1,4.3-0.3,6.4-0.5c17.5-1.7,36.3-5.4,51.7-14.3c7-4,14.1-9.2,17.6-16.8c5-10.7,2-23.7-1.8-34.3c-4.4-12.1-11.4-24.8-9.9-38.1c1.3-11.1,7.9-20.3,15.3-28.3c20.5-22.3,41.2-44.4,60.9-67.3c10.5-12.1,20.8-24.4,31-36.8c8.4-10.2,16.2-21.1,25.4-30.6c7.5-7.8,16.1-14,26.8-16.1c12.5-2.5,25.2,0.8,37.8,0.4c13.3-0.3,24.4-5,34.1-14c8.7-8,15.6-17.6,19.9-28.7C462.9,144.7,464.5,132.5,463.7,119.8z M353.5,192c-0.3,0.3-0.6,0.7-1,1c-8.9,6.5-16.2,14.6-23.7,22.6c-7.2,7.7-15.1,14.8-22.5,22.3c-15.3,15.6-29.1,32.5-43.3,49c-7.2,8.4-14.9,16.3-21.8,24.9c-7.1,8.8-13.7,17.9-20.4,27c-5.3,7.1-10.7,14.2-16.4,21c-3.4,4-10.2,10-10.6,15.6c-0.3,3.7-3.3,4.8-6.1,4.2c-2,0.6-4.4,0.2-5.9-2.1c-3-4.4-6-8.8-9.2-13.1c-2.6-3.5-5.1-7.8-8.7-10.4c-3.2-2.4-6.7-4.4-10.1-6.3c-1.4-0.8-2.8-1.5-4.3-2.3c-0.7-0.3-3.4-1.1-1.2-0.7c-6.5-1.3-5.1-10.9,0.9-10.9c0,0,0,0,0.1,0c4.8-2.6,9.9-4.4,15-6.2c5.4-2,9.5-4.5,13.9-8.2c7.8-6.7,15.1-14,23.1-20.5c5.5-4.5,11.6,4.7,6.2,9.1c-8.5,6.9-16,14.8-24.4,21.7c-4.2,3.4-8.3,5.9-13.5,7.8c-2.4,0.9-4.8,1.6-7.2,2.5c2.8,1.6,5.5,3.3,8.1,5.2c4.2,3.1,7.2,7.6,10.3,11.8c1.9,2.6,3.8,5.1,5.6,7.7c2.2-3.4,5-6.5,7.2-9.1c5.7-6.9,11.3-13.8,16.7-20.9c7.1-9.6,14-19.4,21.5-28.6c7.3-9,15.4-17.5,23-26.3c14.9-17.5,29.5-35.4,45.8-51.6c7.9-7.8,15.9-15.5,23.5-23.6c6.6-7.1,13.5-14.1,21.3-19.9c-4-3.1-9.3-5.3-13.1-7.7c-3.5-2.2-6.9-4.5-9.7-7.6c-3-3.3-5.7-7.5-9.5-10c-5.8-3.9-1-13.8,4.9-9.9c4.8,3.2,7.9,7.5,11.9,11.6c2.9,3,6,5.2,9.5,7.3c6.6,4,15.7,8,19.7,15C361.6,187.8,357.4,192.4,353.5,192z"/><path fill="#BCBCBC" d="M111.2 383c-14-7.4-27.3 3.4-36.6 13.5-8.2 8.8-15 18.7-21.9 28.5 1.8.4 3.7.9 5.5 1.4 1 .2 3.2 1.1 4.2.7 4.6-2 8.4-6.6 11.7-10.2 3.8-4.1 7.3-8.3 11.4-12.1 9.1-8.6 20.3-15.4 33.4-12.1 2 .5 4 1.2 5.9 1.9C120.8 390 116.4 385.7 111.2 383zM473.9 106.3c.1 2 .2 4.1.4 6.1.9 13.1 1.1 25.5-2.5 38.2-3.2 11.4-8.1 22.2-15.4 31.5-7.5 9.5-17.3 18.6-28.5 23.5-11.5 5-23.8 5-36.1 4.2-11.8-.8-24.1-2.5-34.5 4.4-9.1 6.1-15.8 15.4-22.7 23.8-20.1 24.9-40.8 49.4-62.1 73.3-10.5 11.8-21.3 23.3-31.9 34.9-7.4 8.1-17 16.1-21 26.6-3.1 8.1-1.1 16.3 1.9 24.3 5-16.2 15.1-30.3 26.1-43.2 14.8-17.3 29.5-34.7 44.5-51.9 10.4-11.9 21-23.8 31.4-35.8 9-10.3 17.1-21.9 27.2-31.3 10.4-9.6 21.8-14.6 35.9-15.8 13.4-1.2 27.4.1 40.5-3.7 21.7-6.3 37.6-22.8 44.8-44.1C479.2 149.6 478.4 127.9 473.9 106.3z"/><path d="M478.6,80.6c-0.6-2-2-3.1-3.5-3.5c-2.4-2.9-8.6-2.7-10,2.3c-0.3,1.1-0.6,2.2-0.8,3.3c-0.7,0.5-1.3,1.2-1.7,2.3c-3.4,8.3-9.5,15-15.8,21.4c-6.3,6.3-13.2,13.6-21.3,17.6c-7.5,3.7-15.1,2.4-22.3-1.1c-1.8-3.7-3.9-7.3-6-10.9c-2.7-4.8-2.7-9.1-1.2-14.3c2.6-9,8.8-17.1,15.3-23.7c5.1-5.2,12.6-11.2,14.3-18.7c1-4.2-1-8.7-2.1-12.7c-0.7-2.4-0.6-4.9-0.6-7.4c0,0,0-0.1,0-0.1v-0.8c0-4.4-4.2-5.7-7.4-4.4c-1.4-1.7-3.7-2.6-5.8-1.7c-0.5-0.1-1.1-0.2-1.7-0.1c-9.1,0.6-18.2,0-27.4,0.1c-8.1,0.1-16,1.2-23.9,3c-13.8,3.2-27,9.7-37.6,19.2c-11.1,9.9-18.1,22.4-22.2,36.6c-4.5,15.6-3.4,32.2-3.1,48.3c-0.4,0.6-0.7,1.4-0.8,2.3c-4.1,27.1-18.2,49.8-36.7,69.4c-21.7,22.9-42.6,46.4-65.2,68.4c-4.4,4.3-9,8.4-13,13.1c-4.1,4.7-7.9,9.6-12.1,14.2c-3.5,3.9-7.5,7.6-12.4,9.7c-5.9,2.4-12.5,0.7-18.4-0.9c-5.8-1.6-11.4-3.8-17.2-5.6c-5.1-1.5-10.4-1.9-15.7-2.1c-10.4-0.3-21.1,2.1-30.7,5.9c-18,7.1-34.6,21.9-38.9,41.4c-2.8,12.6-2.7,25.9-2,38.7c0.4,6.9,1.4,13.8,1.8,20.8c0.4,7,1.1,13.9,2.7,20.8c0.5,2,1.7,3.1,3.1,3.5c1.9,2.5,5.7,3.5,8.1,0.3c0.6,0,1.3,0.1,1.9,0.2c2.2,0.3,4.4,1,6.6,1.5c3.6,0.9,7.4,1.8,11,0.5c8.4-2.9,15.1-12,20.9-18.3c6.4-7,13.6-15.3,23.6-16.2c11.6-1.1,24.6,9.1,31.3,17.7c1.6,2,3.8,2.5,5.8,2c0.4,0.5,0.8,1,1.1,1.6c6,8.7,4.3,17.3-0.1,26.2c-5,10.3-12,19.5-17.2,29.7c-2.3,4.4,1.8,8.1,5.6,7.8c0.3,2.7,2.2,5.3,5.7,5.1c17.2-0.8,34.8-4.2,50.9-10.3c16.5-6.3,33.2-17,37.6-35.2c2.7-11.3,0-23.5-3.8-34.4c1.1-0.7,2-1.9,2.3-3.6c4-26,23.3-45.1,39.8-64.2c20.7-23.9,41.3-47.9,62-71.7c9-10.4,17.3-21.7,27.2-31.3c11.1-10.7,24.8-12.2,39.5-12.8c12.8-0.5,25.2-1,37.3-5.3c10.3-3.6,19.4-9.8,27.1-17.4c14.5-14.2,21.6-34.3,24.6-54C491.2,128.3,485.6,104.1,478.6,80.6z M408.7,45.9c1.2-1.3,2.4-2.6,3.5-3.9c0,0.1,0,0.1,0,0.2c0.5,3.1,3.5,8.9,2.4,11.2c-3.3,7.2-11.3,12.5-16.3,18.4c-6.9,8-12,18.3-14.3,28.6c-0.7,3-0.4,5.9,0.3,8.6c-0.6-0.6-1.3-1.1-1.9-1.7c-4.5-4.2-11.2-11.2-10.5-17.9c0.7-7.1,6.9-13,11.6-17.8c5.4-5.4,11.3-10.2,16.5-15.8C403,52.6,405.7,49.1,408.7,45.9z M118.8,392.6c-13-3.4-24.2,3.5-33.4,12.1c-4,3.8-7.6,8-11.4,12.1c-3.3,3.6-7.1,8.2-11.7,10.2c-1,0.4-3.2-0.4-4.2-0.7c-1.8-0.4-3.7-0.9-5.5-1.4c6.9-9.8,13.7-19.6,21.9-28.5c9.3-10,22.6-20.8,36.6-13.5c5.2,2.7,9.6,7,13.5,11.5C122.8,393.8,120.8,393.1,118.8,392.6z M218.7,450.4c-3.5,7.6-10.6,12.8-17.6,16.8c-15.4,8.8-34.2,12.6-51.7,14.3c-2.1,0.2-4.3,0.4-6.4,0.5c10.3-18.3,28.7-38.9,17.1-60.3c-5-9.3-13.2-17.1-19.8-25.4c-6.7-8.5-13.7-16.6-22.9-22.3c-16.1-10-33.1-1.3-45.6,10c-10.9,9.9-19.1,22.2-27.6,34.2c-0.4-4-0.6-8-0.8-12c-0.4-7.4-1.5-14.7-1.8-22.2c-0.5-12.9-0.6-27.5,5.2-39.3c9.3-18.9,31.6-28.6,51.7-29.9c11.4-0.7,21.2,3.1,31.8,6.5c11.7,3.8,23.2,4.8,33.9-2.2c9.8-6.4,16.4-16.9,24.1-25.5c9.7-10.9,21-20.6,31.3-31.1c18.9-19.2,37.8-38.8,54.9-59.5c14.1-17.1,24.4-36.9,28.6-58.7c1.1-1,1.9-2.4,1.9-4.3c-0.1-16-1.3-32,2-47.7c2.8-13.2,9.7-24.8,19.5-34c9.4-8.7,21.7-13.9,33.9-16.9c13.1-3.2,26.4-2.1,39.7-2.2c-1.2,1.2-2.3,2.3-3.3,3.5c-3.1,3.5-5.9,7-9.3,10.2c-6.7,6.4-13.9,12.2-19.5,19.6c-5.4,7-8.1,14.7-6.1,23.4c2,8.6,9.1,15.8,15.4,21.5c14.1,12.6,32.6,25.4,51.8,16.9c9.6-4.2,17.3-12.4,24.7-19.6c3.1-3,6.2-6.2,9-9.6c0.2,4.9,0.6,9.8,0.9,14.7c0.8,12.7-0.9,24.8-5.5,36.8c-4.3,11.1-11.2,20.7-19.9,28.7c-9.8,9-20.9,13.7-34.1,14c-12.6,0.3-25.3-2.9-37.8-0.4c-10.7,2.1-19.3,8.4-26.8,16.1c-9.1,9.5-17,20.4-25.4,30.6c-10.2,12.4-20.5,24.6-31,36.8c-19.8,22.9-40.5,45-60.9,67.3c-7.4,8-14,17.2-15.3,28.3c-1.5,13.3,5.5,26,9.9,38.1C220.8,426.7,223.7,439.6,218.7,450.4z M471.8,171.4c-7.2,21.3-23.1,37.7-44.8,44.1c-13.1,3.8-27.1,2.5-40.5,3.7c-14.2,1.2-25.5,6.2-35.9,15.8c-10,9.3-18.2,20.9-27.2,31.3c-10.4,12-20.9,23.8-31.4,35.8c-15,17.2-29.7,34.6-44.5,51.9c-11,12.9-21.1,27-26.1,43.2c-3-7.9-5-16.1-1.9-24.3c4-10.5,13.6-18.5,21-26.6c10.7-11.6,21.4-23.1,31.9-34.9c21.3-23.9,42-48.4,62.1-73.3c6.8-8.5,13.5-17.7,22.7-23.8c10.4-7,22.7-5.3,34.5-4.4c12.3,0.8,24.6,0.8,36.1-4.2c11.2-4.9,21-14,28.5-23.5c7.3-9.3,12.2-20.1,15.4-31.5c3.6-12.7,3.4-25.1,2.5-38.2c-0.1-2-0.3-4.1-0.4-6.1C478.4,127.9,479.2,149.6,471.8,171.4z"/><path d="M359,183.3c-4-7-13.1-11-19.7-15c-3.5-2.1-6.6-4.3-9.5-7.3c-3.9-4.1-7.1-8.4-11.9-11.6c-5.9-3.9-10.7,6-4.9,9.9c3.8,2.5,6.5,6.7,9.5,10c2.8,3.1,6.2,5.4,9.7,7.6c3.8,2.4,9.1,4.6,13.1,7.7c-7.8,5.9-14.6,12.8-21.3,19.9c-7.6,8.1-15.6,15.8-23.5,23.6c-16.4,16.2-30.9,34.1-45.8,51.6c-7.6,8.9-15.7,17.3-23,26.3c-7.5,9.3-14.4,19.1-21.5,28.6c-5.3,7.2-10.9,14.1-16.7,20.9c-2.2,2.6-5,5.7-7.2,9.1c-1.8-2.6-3.7-5.2-5.6-7.7c-3.1-4.1-6.1-8.6-10.3-11.8c-2.6-1.9-5.3-3.6-8.1-5.2c2.4-0.9,4.8-1.7,7.2-2.5c5.2-1.9,9.2-4.4,13.5-7.8c8.4-6.9,16-14.8,24.4-21.7c5.5-4.4-0.6-13.6-6.2-9.1c-8,6.5-15.2,13.8-23.1,20.5c-4.4,3.7-8.5,6.3-13.9,8.2c-5.2,1.9-10.2,3.6-15,6.2c0,0,0,0-0.1,0c-6,0-7.4,9.6-0.9,10.9c-2.1-0.4,0.5,0.3,1.2,0.7c1.4,0.7,2.9,1.5,4.3,2.3c3.5,1.9,7,3.9,10.1,6.3c3.5,2.6,6.1,6.9,8.7,10.4c3.2,4.3,6.2,8.7,9.2,13.1c1.5,2.3,3.9,2.8,5.9,2.1c2.8,0.7,5.8-0.5,6.1-4.2c0.4-5.6,7.2-11.6,10.6-15.6c5.7-6.8,11.1-13.8,16.4-21c6.7-9.1,13.3-18.2,20.4-27c6.9-8.5,14.7-16.5,21.8-24.9c14.2-16.6,28-33.4,43.3-49c7.4-7.6,15.2-14.6,22.5-22.3c7.5-8,14.8-16.1,23.7-22.6c0.4-0.3,0.7-0.6,1-1C357.4,192.4,361.6,187.8,359,183.3z"/></svg>