<?xml version="1.0" encoding="UTF-8"?>
<svg width="60px" height="58px" viewBox="0 0 60 58" version="1.1" xmlns="http://www.w3.org/2000/svg" xmlns:xlink="http://www.w3.org/1999/xlink">
    <!-- Generator: Sketch 50.2 (55047) - http://www.bohemiancoding.com/sketch -->
    <title>swap</title>
    <desc>Created with Sketch.</desc>
    <defs></defs>
    <g id="Faast-Lander" stroke="none" stroke-width="1" fill="none" fill-rule="evenodd">
        <g id="Final-Design" transform="translate(-901.000000, -3653.000000)" fill-rule="nonzero">
            <g id="Group-12" transform="translate(301.000000, 3652.000000)">
                <g id="swap" transform="translate(600.000000, 1.000000)">
                    <g id="Group-7">
                        <path d="M27.8483333,2.805 C37.3625,-1.57833333 48.65,1.50166667 54.6091667,10.1175 L58.7008333,9.61 L54.8008333,25.2025 L43.3725,11.5141667 L47.2075,11.0308333 C42.6233333,5.11083333 35.2958333,1.99916667 27.8483333,2.805 Z" id="Shape" fill="#181818"></path>
                        <path d="M58.9008333,41.9075 C58.9008333,34.2476201 52.6788839,28.03 45.0133333,28.03 C37.353655,28.03 31.1358333,34.2475812 31.1358333,41.9075 C31.1358333,49.5810486 37.3497847,55.795 45.0133333,55.795 C52.6832939,55.795 58.9008333,49.5813061 58.9008333,41.9075 Z" id="Shape" stroke="#181818" stroke-width="2"></path>
                        <path d="M29.14,16.53 C29.14,8.85336649 22.9296293,2.64083333 15.2616667,2.64083333 C7.58930447,2.64083333 1.37916667,8.85193204 1.37916667,16.53 C1.37916667,24.1912889 7.59419194,30.4058333 15.2616667,30.4058333 C22.9253355,30.4058333 29.14,24.1909284 29.14,16.53 Z" id="Shape" stroke="#181818" stroke-width="2"></path>
                        <path d="M32.4233333,55.6316667 C22.9166667,60.015 11.625,56.935 5.66666667,48.32 L1.57416667,48.8258333 L5.47,33.225 L16.9033333,46.9216667 L13.0641667,47.405 C17.6533333,53.3266667 24.9791667,56.4391667 32.4233333,55.6316667 Z" id="Shape" fill="#181818"></path>
                    </g>
                </g>
            </g>
        </g>
    </g>
</svg>