<?xml version="1.0" encoding="UTF-8"?>
<svg width="60px" height="49px" viewBox="0 0 60 49" version="1.1" xmlns="http://www.w3.org/2000/svg" xmlns:xlink="http://www.w3.org/1999/xlink">
    <!-- Generator: Sketch 50.2 (55047) - http://www.bohemiancoding.com/sketch -->
    <title>portfolio</title>
    <desc>Created with Sketch.</desc>
    <defs></defs>
    <g id="Faast-Lander" stroke="none" stroke-width="1" fill="none" fill-rule="evenodd">
        <g id="Final-Design" transform="translate(-616.000000, -3658.000000)" fill="#181818" fill-rule="nonzero">
            <g id="Group-12" transform="translate(301.000000, 3652.000000)">
                <g id="portfolio" transform="translate(315.000000, 0.000000)">
                    <g id="noun_1175796_cc" transform="translate(0.000000, 6.000000)">
                        <path d="M60,48.28125 L60,0.46875 L0,0.46875 L0,48.28125 L29.625,48.28125 L31.5,48.28125 L60,48.28125 Z M1.875,2.34375 L58.125,2.34375 L58.125,46.40625 L1.875,46.40625 L1.875,2.34375 Z" id="Shape"></path>
                        <path d="M20.625,7.96875 C18.28125,7.96875 16.21875,8.4375 14.0625,9.375 C9.75,11.34375 6.75,14.625 5.25,19.125 C3.09375,25.875 5.34375,33 11.0625,37.125 C11.53125,37.5 12,37.78125 12.46875,38.0625 C15,39.5625 17.71875,40.21875 20.53125,40.21875 C26.0625,40.21875 31.5,37.3125 34.5,32.15625 C36,29.625 36.65625,27 36.65625,24.09375 C36.75,15.1875 29.53125,7.96875 20.625,7.96875 Z M19.6875,9.84375 L19.6875,19.6875 L15.75,10.78125 C17.0625,10.21875 18.28125,9.9375 19.6875,9.84375 Z M13.96875,11.4375 L18.9375,22.5 L12.65625,20.4375 L7.40625,18.75 C8.71875,15.5625 10.875,13.125 13.96875,11.4375 Z M6.84375,20.53125 L19.125,24.5625 L11.53125,34.96875 C7.21875,31.5 5.4375,25.96875 6.84375,20.53125 Z M24.28125,37.78125 C20.625,38.8125 16.78125,38.25 13.5,36.375 C13.3125,36.28125 13.21875,36.1875 13.03125,36.09375 L20.90625,25.3125 L27.28125,28.96875 L32.4375,31.96875 C30.5625,34.875 27.65625,36.9375 24.28125,37.78125 Z M33.375,30.375 L21.5625,23.53125 L21.5625,9.84375 C28.96875,10.3125 34.875,16.5 34.875,24 C34.875,26.4375 34.40625,28.40625 33.375,30.375 Z" id="Shape"></path>
                        <rect id="Rectangle-path" x="40.3125" y="17.34375" width="13.125" height="1.875"></rect>
                        <rect id="Rectangle-path" x="40.3125" y="21.09375" width="13.125" height="1.875"></rect>
                        <rect id="Rectangle-path" x="40.3125" y="24.84375" width="13.125" height="1.875"></rect>
                        <rect id="Rectangle-path" x="40.3125" y="28.59375" width="13.125" height="1.875"></rect>
                    </g>
                </g>
            </g>
        </g>
    </g>
</svg>